<?xml version="1.0" encoding="UTF-8" standalone="no"?>
<svg
   xmlns:dc="http://purl.org/dc/elements/1.1/"
   xmlns:cc="http://creativecommons.org/ns#"
   xmlns:rdf="http://www.w3.org/1999/02/22-rdf-syntax-ns#"
   xmlns:svg="http://www.w3.org/2000/svg"
   xmlns="http://www.w3.org/2000/svg"
   viewBox="0 0 4346.9868 488.74667"
   height="488.74667"
   width="4346.9868"
   xml:space="preserve"
   id="svg2"
   version="1.1"><metadata
     id="metadata8"><rdf:RDF><cc:Work
         rdf:about=""><dc:format>image/svg+xml</dc:format><dc:type
           rdf:resource="http://purl.org/dc/dcmitype/StillImage" /></cc:Work></rdf:RDF></metadata><defs
     id="defs6" /><g
     transform="matrix(1.3333333,0,0,-1.3333333,0,488.74667)"
     id="g10"><g
       transform="scale(0.1)"
       id="g12"><path
         id="path14"
         style="fill:#231f20;fill-opacity:1;fill-rule:nonzero;stroke:none"
         d="m 3644.63,842.859 c -0.87,10.34 -8.15,15.883 -16.2,20.211 -5.18,2.789 -10.65,0.879 -14.15,-3.761 -2.09,-2.77 -3.71,-6.489 -3.99,-9.911 -0.5,-6.257 3.59,-10.269 9.34,-11.316 8.68,-1.59 17.8,-3.684 25,4.777 z m -117.81,52.02 c -14.67,1.762 -25.27,-4.27 -24.71,-14.289 0.65,-11.41 9.52,-14.539 18.36,-17.481 1.73,-0.578 3.6,-0.828 5.43,-0.98 9.76,-0.809 18.33,4.621 21.59,13.582 2.9,7.949 -3.79,15.969 -15.23,18.238 -1.81,0.36 -3.63,0.621 -5.44,0.93 z M 2241.2,2360.93 c 30.15,-1.17 53.7,0.18 77.52,8.47 48.02,16.7 97.73,27.17 148.19,33.58 15.04,1.91 30.2,2.74 43.22,11.7 4.94,3.41 4.26,5.99 -4.04,7.76 -89.12,-1.35 -176.83,-18.73 -264.89,-61.51 z M 489.945,1038.3 c -8.445,-23.92 -3.636,-43.058 -5.605,-61.679 -2.5,-23.66 3.637,-44.512 15.812,-64.723 19.821,-32.906 30.223,-69.078 33.418,-107.339 0.629,-7.528 0.91,-15.149 2.403,-22.52 1.07,-5.289 4.035,-9.957 13.812,-4.379 0,45.449 0.586,92.602 -0.168,139.738 -0.715,44.684 -18.344,80.122 -59.672,120.902 z m -56.734,82.23 c 8.449,147.44 5.453,291.89 -24.086,435.14 -0.23,-17.47 -5.648,-33.66 -12.691,-48.95 -18.422,-39.98 -17.922,-82.32 -9.532,-123 6.043,-29.28 5.145,-56.05 -2.738,-82.17 8.016,-23.27 16.731,-44.41 22.402,-66.33 4.692,-18.13 1.684,-37.48 9.219,-55.84 7.731,-18.83 11.77,-39.17 17.426,-58.85 z M 1568,2193.57 c 19.86,0.07 37.93,8.63 56.98,3.42 32.85,-8.98 63.79,3.74 95.11,8.97 22.11,3.69 34.5,14.87 55.17,36.09 11.45,2.6 14.69,-11.39 27.3,-12.3 2.88,0.31 8.67,0.21 14.08,1.62 38.59,10.05 77.25,19.94 115.59,30.91 14.53,4.16 31.33,7.76 41.75,17.39 22.85,21.11 50.06,25.2 78.37,28.94 2.54,0.33 4.55,4.72 12.31,13.34 -44.29,-14.18 -84.02,-11.46 -123.3,-18.91 -40.64,-7.7 -83.03,-6.73 -123.61,-17.67 -33.03,-8.9 -66.66,-15.86 -99.11,-26.47 -32.45,-10.6 -63.22,-25.82 -96.7,-34.21 -19.87,-4.98 -38.73,-14.68 -53.94,-31.12 z m 1764.63,-975.79 c -20.01,-7.03 -29.69,-26 -39.01,-44.08 -26.4,-51.27 -40.05,-105.93 -42.04,-164 12.42,-13.368 22.09,-28.981 36.07,-37.661 24.05,-14.93 50.7,-25.719 76.5,-37.707 2.72,-1.262 7.11,1.078 15.66,2.668 3.53,36.34 0.13,73.7 -4.95,110.86 -5.18,37.92 0.36,75.76 0.86,111.48 -12.9,19.79 -24.2,37.25 -35.71,54.59 -0.87,1.31 -3.14,1.7 -7.38,3.85 z m 2982.6,1123.05 c 18.31,-52.47 3.74,-111.59 16.73,-169.7 7.43,-33.21 8.13,-67.76 23.51,-99.33 4,-8.21 3.19,-18.68 5.11,-28 9.59,-46.61 18.49,-93.38 29.39,-139.68 6.54,-27.79 15.64,-54.75 16.02,-83.9 0.17,-12.89 3.85,-26.66 9.44,-38.36 11.08,-23.24 14.27,-47.23 12.84,-72.34 -1.21,-21.36 2.42,-41.67 11.92,-61.01 10.31,-21.02 12.27,-43.74 13.31,-66.78 0.77,-17.02 0.47,-34.93 5.78,-50.71 8.61,-25.61 11.67,-51.98 16.92,-78.08 10.13,-50.37 20.97,-100.59 31.82,-150.81 1.6,-7.38 4.22,-14.73 7.53,-21.53 30.91,-63.38 61.67,-126.85 93.4,-189.82 9.46,-18.76 21.74,-36.17 48.63,-41.22 24.18,7.65 51.47,15.99 78.55,24.94 36.15,11.94 63.03,34.02 76.3,70.86 3.87,10.74 8.87,21.08 13.43,31.56 12.22,28.09 22.97,56.59 22.75,87.85 -0.13,19.77 7.05,37.29 16.02,54.27 19.57,37.04 39.59,73.85 58.82,111.06 4.27,8.26 8.07,17.67 8.66,26.76 3.93,60.75 9.57,121.55 -1.56,182.25 -5.94,32.41 -16.24,63.2 -38.36,87.88 -28.8,32.14 -44.62,69.93 -58.07,110.23 -15.02,45.02 -27.64,91.46 -52.37,132.56 -29.4,48.87 -58.31,97.71 -93.73,143.17 -65.02,83.47 -147.6,142.6 -240.69,188.79 -35.78,17.75 -73.73,31.13 -110.74,46.4 -5.46,2.25 -10.89,2.02 -21.36,-7.31 z M 3427.65,1258.49 c -8.72,11.47 -8.61,27.99 -21.02,37.46 -11.03,-10.64 -11.1,-11.38 -9,-16.52 5.67,-13.86 17.33,-18.24 30.71,-20.18 1.04,-26.6 -0.06,-53.49 3.56,-79.74 7.26,-52.74 17.1,-105.13 26.2,-159.59 27.26,-41.229 69.73,-58.979 115.9,-67.799 16.2,11.258 21.58,24.867 21.96,40.859 1.32,55.13 2.35,110.27 3.95,165.4 0.38,13.27 2.01,26.57 4.14,39.68 0.87,5.36 4.38,10.37 7.08,15.33 2.89,5.33 15.67,5.44 20.52,1.29 7.81,-6.71 11.32,-15.45 11.92,-25.01 2.13,-34.2 6.18,-68.54 4.76,-102.63 -1.84,-44.24 5.29,-87.419 10.01,-130.86 3.4,-31.258 17.76,-57.891 45.31,-75.918 12.73,-8.332 24.55,-18.043 37.23,-26.442 17.78,-11.761 36.89,-19.121 58.93,-18.531 59.17,1.57 117.84,8.672 175.01,22.891 49.67,12.359 98.98,26.949 148.18,41.359 47.69,13.961 94.53,28.359 139.5,49.352 12.02,5.621 25.26,8.55 37.68,13.39 62.06,24.18 124.96,46.349 182.46,80.949 17.91,10.78 37.12,19.46 56.03,28.48 53.3,25.42 107.5,49.16 154.66,85.7 5.97,4.62 12.81,8.42 19.75,11.43 40.58,17.6 75.99,43.27 111.03,69.69 12.11,9.14 25.66,16.36 38.21,24.94 69.07,47.27 141.65,89.63 205.45,144.3 21.66,18.56 42.19,38.51 62.22,58.84 17.67,17.92 16.06,37.43 -3.04,54.47 -5.66,5.05 -11.57,10.14 -18.17,13.73 -21.72,11.84 -43.61,22.97 -67.83,29.71 -58.86,16.39 -119.13,26.62 -179.29,34.45 -67.8,8.83 -135.74,20.91 -204.77,17.73 -5.66,-0.26 -11.51,0.17 -17.08,1.28 -67.58,13.43 -136.26,13.93 -204.68,17.59 -15.12,0.81 -30.12,3.64 -45.21,5.27 -49.29,5.31 -98.4,10 -147.12,-5.52 -56.08,-17.85 -112.65,-34.17 -168.82,-51.76 -10.81,-3.38 -20.52,-10.1 -31.12,-14.32 -14.12,-5.63 -28.27,-11.97 -43.02,-15.09 -42.99,-9.11 -81.72,-30.13 -123.52,-42.99 -39.42,-12.12 -76.47,-31.98 -116.47,-45.16 -70.34,-23.17 -138.21,-53.94 -206.72,-82.47 -15.61,-6.5 -32.85,-13.93 -43.7,-26 -21.07,-23.44 -51.27,-40.25 -57.93,-75.49 -2.17,-11.48 -14.26,-17.27 -23.85,-23.55 z M 491.891,1166.23 c 6.789,-5.7 10.652,-10.12 15.48,-12.79 14.707,-8.13 23.512,-20.64 22.961,-36.92 -1.246,-36.58 15.426,-66.11 34.012,-95.33 8.183,-12.86 16.527,-25.741 23.254,-39.381 4.988,-10.098 9.879,-21.258 10.675,-32.239 3.993,-55.129 10.637,-110.519 8.391,-165.488 -1.625,-39.762 -0.941,-79.621 -5.043,-119.113 24.258,-40.379 63.176,-61.321 101.656,-81.887 47.407,-25.352 99.618,-37.832 151.27,-51.223 9,-2.328 18.933,-1.347 28.437,-1.371 20.985,-0.047 42.004,1.043 62.954,0.231 51.433,-1.989 102.452,-4.86 150.402,-28.047 37.81,-18.281 78.79,-28.203 119.86,-37.024 24.19,-5.187 48.23,-11.019 72.31,-16.699 73.27,-17.289 147.72,-14.129 222.04,-12.648 7.54,0.148 15.63,0.84 22.45,3.691 35.8,14.988 73.84,17.77 111.66,22.699 41.6,5.418 82.38,13.879 121.92,29.661 28.06,11.187 58.79,15.679 88.3,23.257 20.28,5.211 41.4,8.461 60.61,16.321 49.31,20.179 97.61,42.8 146.59,63.781 57.72,24.73 116.67,46.781 173.37,73.609 67.15,31.77 133.19,66.121 198.23,102.039 24.99,13.801 50.27,27.051 75.23,40.852 43.1,23.82 87.49,46.148 123.09,81.359 9.63,9.532 20.52,16.551 32.34,23.071 41.84,23.097 80.68,50.699 115.78,83.148 43.38,40.121 86.98,79.571 135.41,114.071 39.22,27.94 64.95,66.57 79.27,115.21 16.57,56.23 32.87,113.19 63.01,165 30.15,51.83 70.63,89.45 128.51,106.16 16.68,4.81 32.77,10.24 47.67,18.77 50.06,28.63 103.41,48.57 159.36,62.04 7.37,1.78 14.59,4.81 15.17,14.34 -5.1,7.28 -12.97,5.6 -20.06,5.88 -28.59,1.14 -57.21,1.76 -85.79,3.12 -28.79,1.37 -56.42,6.71 -82.74,19.99 -15.06,7.6 -32.4,10.67 -48.7,15.82 -21.5,6.8 -37.64,19.06 -40.65,42.94 -3.47,27.5 -2.08,53.37 24.66,70.96 37.15,24.43 75.15,44.61 121.86,42.98 28.52,-0.99 57.17,2.71 85.75,2.57 23.47,-0.1 45.52,3.36 66.02,15.11 30.44,17.44 64.98,21.54 98.38,28.22 26.17,5.23 53.24,4.44 80.82,-6.45 28.99,12.79 60.85,16.24 92.98,20.65 56.63,7.76 114.29,6.67 170.16,20.32 5.5,1.34 11.36,1.93 17.03,1.81 59.14,-1.17 117.95,6.53 176.81,7.85 95.75,2.14 190.27,10.95 283.97,30.21 13.02,2.68 26.37,4.3 39.64,5.04 21.22,1.17 41,5.79 60.57,14.83 18.85,8.71 39.18,14.93 59.45,19.68 33.69,7.9 48.42,3.8 88.05,-20.29 5.79,-30.73 4.86,-67.21 39.41,-89.82 30.64,-6.02 62.62,-2.35 94.35,5.31 23.3,5.63 45.07,5.48 64.63,-11.4 10.64,-9.18 24.56,-10.13 38.02,-9.68 74.76,2.5 147.86,-12.2 221.55,-20.82 18.94,-2.22 38.04,-2.97 57.04,-4.71 15.19,-1.39 30.86,-1.33 45.42,-5.25 80.99,-21.82 162.91,-15.49 244.33,-6.65 46.03,4.99 88.63,-4.18 126.86,-25.13 29.28,-16.05 54.18,-41.87 65.63,-76.15 2.31,-6.93 2.12,-15.09 11.18,-17.66 2.55,2.11 7.09,3.97 7.42,6.41 4.95,35.82 12.95,71.38 11.31,107.85 -0.77,17.07 -2.15,34.11 -3.64,51.13 -1.49,17.05 -3.63,34.04 -5.17,51.08 -1.02,11.38 0.84,23.56 -2.59,34.09 -12.72,39.12 -8.92,79.33 -9.83,119.2 -0.3,13.22 0.24,27.12 4.01,39.61 7.9,26.18 9.19,52.36 6.42,79.21 -0.77,7.49 -1.08,15.57 0.88,22.69 14.67,53.35 28.22,108.34 56.98,155.19 39.66,64.62 77.58,131.35 132.84,185.24 13.77,13.42 28.63,24.93 45.19,34.72 26.75,15.82 55.34,19.29 81.94,4.67 36.82,-20.24 75.28,-26.24 115.94,-23.07 68.31,5.34 127.07,-22.64 183.11,-55.32 57.86,-33.75 118.13,-62.24 178.84,-89.76 36.63,-16.61 71.22,-36.29 106.27,-55.66 66.09,-36.53 121.15,-85.43 169.87,-142.32 4.75,-5.55 10.9,-9.9 16.17,-14.6 4.17,3.31 9.03,5.36 9.06,7.47 0.48,34.15 0.34,68.3 0.34,105.6 -25.17,13.82 -38.21,43.37 -66.97,56.36 -7.41,3.34 -12.48,13.98 -16.43,22.31 -5.87,12.37 0.71,27.71 12.84,34.01 12.31,6.39 28.88,3.82 36.34,-6.47 4.43,-6.1 7.45,-13.22 11.2,-19.82 3.68,-6.46 7.48,-12.85 10.21,-17.54 18.7,-8.96 36.36,-3.89 53.16,-6.58 18.33,-2.93 29.57,-18.62 26.12,-37.35 -0.69,-3.73 -1.16,-7.67 -2.72,-11.06 -16.93,-36.68 -12.66,-74.67 -5.31,-112.15 5.15,-26.21 11.82,-51.96 11.46,-78.98 -0.31,-23.05 8.4,-40.11 32.18,-48.15 35.26,-11.93 50.27,-41.03 52.57,-74.74 1.83,-26.91 8.65,-52.58 12.29,-78.94 1.8,-13.02 6.48,-25.9 11.51,-38.17 10.83,-26.45 22.64,-52.49 34.28,-78.59 2.3,-5.18 5.36,-10.07 8.51,-14.8 6.13,-9.18 18.53,-13.53 30.35,-10.93 10.1,2.22 17.24,8.32 20.24,18.03 2.22,7.19 3.69,14.86 3.94,22.37 1.75,54.39 15.68,105.11 43.41,152.17 5.66,9.59 9.65,20.87 11.54,31.86 7.08,41.19 17.34,82.06 9.4,124.68 -4.26,22.87 0.73,44.83 10.67,66.58 23.96,52.35 34.56,107.44 37.15,165.46 1.92,43.15 4.97,87.23 21.54,128.96 12.59,31.72 17.3,66.26 32.39,97.43 4.02,8.3 4.69,18.28 6.58,27.55 1.9,9.29 0.95,20.13 5.5,27.75 17.54,29.3 18.2,61.44 19.81,93.87 0.75,15.09 3.03,30.51 7.4,44.94 20.96,69.31 20.39,138.45 2.38,208.24 -8.08,31.3 -14.98,63.05 -19.74,95 -3.74,25.07 -13,47.45 -23.39,70.05 -11.12,24.19 -21.19,48.95 -30.1,74.04 -7.47,21.02 -3.25,40.98 9.56,59.68 21.7,31.68 43.68,62.5 80.97,78.27 16.2,6.84 32.34,11.29 49.91,9.53 46.08,-4.62 90.88,-15.99 130.74,-38.93 41.5,-23.89 65.43,-63.73 75.71,-109.9 5.45,-24.47 -4.75,-48.94 -10.51,-72.93 -2.19,-9.16 -6.49,-17.97 -10.82,-26.42 -9.13,-17.79 -11.38,-36.57 -7.34,-55.64 12.7,-59.89 13.71,-121.07 21,-181.55 1.37,-11.29 2.34,-22.96 1.1,-34.2 -5.22,-47.22 -13.34,-94.09 -11.74,-142 0.43,-12.7 -5.9,-25.78 -9.89,-38.43 -8.61,-27.26 -18.44,-54.14 -26.46,-81.56 -11.75,-40.17 -23.96,-80.28 -20.56,-123.19 1.53,-19.33 -4.75,-37.8 -11.87,-55.55 -17.76,-44.31 -30.17,-90.17 -42.66,-136.16 -7.8,-28.73 -7.83,-56.21 -0.88,-84.5 14.66,-59.7 9.79,-117.22 -19.76,-171.85 -19.97,-36.93 -23.42,-75.02 -13.8,-116.19 11.45,-49 7.05,-98.93 -5.42,-147.05 -10.95,-42.28 -27.61,-83.06 -41.14,-124.71 -5.87,-18.06 -11.39,-36.39 -14.96,-55.01 -5.71,-29.77 -6.66,-60.06 -17.66,-89.31 -6.39,-17 -4.58,-37.71 -3.84,-56.65 2.01,-51.72 -4.24,-102.42 -14.48,-152.96 -8.36,-41.33 -8.14,-42.58 -40.49,-83.3 -1.42,-39.66 -14.94,-79.26 -27.16,-119.33 -13.88,-45.5 -26.49,-91.429 -37.94,-137.601 -7.92,-31.91 -18.69,-61.758 -39.6,-87.758 -24.35,-30.269 -35.38,-67.351 -49,-102.82 -15.11,-39.32 -23.63,-79.941 -20.4,-122.832 2.15,-28.449 -0.2,-57.219 1.05,-85.777 1.8,-40.981 -13.71,-73.852 -42.42,-102.153 -19.22,-18.957 -39.25,-35.89 -65.13,-45.25 -10.64,-3.847 -22.16,-8.398 -30.11,-15.961 -21.78,-20.679 -47.7,-19.867 -74.84,-20.129 -60.8,-0.578 -110.84,27.172 -156.84,61.243 -34.23,25.359 -57.82,60.308 -58.11,106.57 -0.08,13.09 -3.6,26.41 -7.16,39.18 -6.2,22.269 -8.94,44.757 -9.08,67.796 -0.08,13.293 -1.62,26.582 -2.71,39.852 -2.27,27.469 -11.95,51.02 -31.91,71.281 -21.34,21.668 -40.17,45.809 -60.15,68.828 -3.75,4.321 -8.88,7.821 -11.47,12.7 -33.08,62.351 -84.87,112.89 -112.3,178.871 -9.5,22.85 -23.88,43.1 -37.57,63.86 -24.08,36.51 -45.46,74.95 -65.84,113.7 -7.77,14.76 -8.87,32.89 -14.46,48.98 -5.63,16.17 -11.89,32.35 -19.94,47.42 -13.95,26.11 -19.02,53.55 -17.53,82.75 1.48,28.98 -0.76,56.9 -19.2,81.65 -6.65,8.94 -11.58,20.32 -13.7,31.29 -8.44,43.7 -31.21,81.82 -46.51,122.81 -9.31,24.96 -20.88,48.69 -23.83,75.95 -1.59,14.69 -9.2,28.88 -14.95,42.94 -5.83,14.26 -10.86,28.63 -10.46,44.18 1.27,49 -17.18,93.46 -33.11,138.12 -14.69,41.21 -34.56,80.39 -47.02,122.7 -11.61,39.43 -38.33,69.96 -68.35,97.11 -22.01,19.91 -39.59,12.61 -47.53,-18.86 -0.43,-1.72 0.3,-3.74 0.56,-6.37 8.91,-19.64 28.48,-29.31 44.22,-42.8 27.84,-23.85 34.33,-48.25 19.62,-80.92 -7.03,-15.61 -15.84,-30.45 -24.37,-45.34 -13.61,-23.74 -20.53,-48.95 -19.84,-76.47 0.96,-37.88 -6.15,-76.33 8.53,-113.16 0.26,-76.47 27.03,-149.89 26.02,-226.49 12.96,-39.99 8.95,-83.3 24.53,-122.95 4,-10.17 5.22,-22.69 3.63,-33.52 -3.14,-21.38 -0.4,-41.74 4.6,-62.24 12.81,-52.6 13.65,-105.36 3.88,-158.67 -3.75,-20.49 -5.01,-41.62 -5.53,-62.5 -1.27,-51.47 -0.55,-102.998 -2.32,-154.452 -1.84,-53.328 -4.35,-106.707 -8.99,-159.847 -4.5,-51.5 -2.58,-102.809 -1.6,-154.27 0.69,-36.172 -0.77,-72.422 -2.27,-108.59 -0.64,-15.351 -1.83,-30.421 3.56,-45.179 10.11,-27.692 10.07,-56.203 5.62,-84.731 -2.98,-19.101 -1.66,-37.441 1.15,-56.601 6.38,-43.469 6.87,-87.461 0.19,-131.071 -10.32,-67.41 -45.13,-113.9879 -110.61,-140.1988 -36.04,-14.4219 -72.24,-22.73051 -109.94,-27.55864 -19.34,-2.472654 -37.66,0.9375 -55.46,9.75004 -41.28,20.4492 -81.7,41.707 -101.04,80.1172 -20.8,8.2692 -31.58,-2.2774 -43.62,-6.7305 -34.65,-12.7891 -63.92,-3.4766 -88.3,22.0627 -15.75,16.508 -30.02,34.539 -43.94,52.66 -10.63,13.848 -18.95,29.687 -13.03,47.789 17.24,52.711 7.05,105.742 4.98,158.82 -22.4,29.321 -49.71,54.18 -59.75,87.75 -9.96,6.16 -17.68,4.09 -22.63,-1.851 -52.64,-63.059 -111.12,-120.539 -169.3,-178.321 -16.22,-16.109 -32.89,-31.777 -49.63,-47.347 -5.55,-5.172 -11.64,-9.891 -18.03,-13.981 -19.28,-12.351 -42.03,-11.32 -52.27,1.899 -10.56,13.633 -10.67,38.351 -0.1,53.84 2.14,3.132 4.22,7.211 7.34,8.621 38.95,17.531 56.11,55.679 81.29,86.039 17.12,20.64 34.94,40.051 55.84,57.051 46.24,37.609 87.08,79.871 111.68,135.64 6.1,13.84 16.09,25.899 23.38,39.281 13.78,25.258 25.43,51.379 25.32,81 -0.07,21.399 5.4,41.739 13.15,61.2 11.47,28.808 16.06,58.859 18.31,89.281 2.7,36.519 11.04,71.109 26.42,104.508 8.69,18.859 14.59,39.23 19.73,59.429 9.96,39.121 24.23,76.541 44.7,111.091 36.73,62.03 50.72,131.09 63.98,200.3 5.75,29.96 9.52,60.28 20.56,88.91 9.82,25.45 11.45,51.47 10.14,76.77 -13.3,7.41 -20.03,-1.45 -27.74,-5.54 -27.42,-14.55 -51.48,-34.01 -67.53,-60.31 -13.24,-21.7 -30.49,-38.85 -48.41,-55.91 -38.64,-36.75 -79.17,-71.47 -113.13,-113.09 -15.49,-18.98 -32.86,-37.19 -57.12,-46.48 -6.87,-2.63 -14.3,-6.88 -18.61,-12.56 -35.37,-46.58 -91.37,-68.44 -131.05,-109.94 -8.84,-9.24 -22.56,-13.95 -34.3,-20.27 -42.01,-22.64 -83.45,-46.439 -121.2,-75.619 -32.07,-24.789 -67.02,-43.723 -104.12,-59.121 -33.59,-13.942 -65.33,-30.75 -95.47,-51.41 -41.04,-28.11 -87.04,-47.399 -132.36,-67.461 -78.42,-34.707 -157.07,-68.899 -233.32,-108.258 -23.8,-12.301 -47.84,-23.629 -74.01,-30.09 -9.21,-2.269 -18.36,-5.48 -26.9,-9.59 -71.14,-34.172 -148.42,-48.429 -223.93,-67.859 -34.79,-8.961 -72.04,-8.063 -107.19,-15.992 -59.89,-13.52 -121.06,-14.09 -181.49,-18.789 -72.02,-5.602 -144.9,-1.711 -216.34,12.949 -22.79,4.68 -45.3,6.992 -67.99,1.351 -26.6,-6.609 -49.05,-1.589 -66.16,21.149 -7.03,9.34 -15.98,15.82 -27.55,19.262 -40.56,12.07 -75.97,35.257 -113.6,53.66 -11.9,5.82 -23.3,13.238 -33.69,21.476 -47.8,37.942 -97.28,73.422 -149.2,105.524 -22.73,14.058 -44.77,28.929 -63.23,48.718 -14.81,15.891 -33.35,24.981 -54.97,25.43 -4.16,-1.609 -8.26,-2.238 -11.16,-4.449 -43.81,-33.512 -86.17,-69.121 -131.53,-100.379 -47.05,-32.434 -91.58,-67.801 -136.36,-103.09 -23.88,-18.812 -51.32,-33.023 -73.4,-54.472 -4.06,-3.938 -8.66,-8.34 -13.82,-9.95 -31.49,-9.859 -55.72,-32.949 -85.33,-46.031 -45.57,-20.141 -87.86,-45.867 -128.75,-74.09 -79.14,-54.617 -165.63,-93.578 -257.08,-122.75 -58.14,-18.539 -114.4,-42.328 -169.56,-68.527 -37.79,-17.953 -74.16,-39.18 -118.24,-39.57 -10.25,-0.09 -21.49,-7.641 -30.41,-14.262 -15.88,-11.789 -33.38,-17.121 -52.46,-20.758 -29.94,-5.711 -59.07,-14.41 -87.9,-24.953 -37.73,-13.797 -78.19,-16.141 -117.96,-17.27 -30.52,-0.867 -60.9,-1.179 -91.24,-5.3 -57.52,-7.809 -114.29,-2.86 -169.7,13.953 -15.25,4.617 -29.38,5.277 -44.82,2.886 -14.98,-2.316 -30.4,-2.636 -45.61,-2.457 -86.25,1.02 -58.58,-6.621 -135.28,34.45 -30.242,16.199 -61.132,30.73 -91.663,46.148 -14.168,7.152 -28.469,9.633 -43.899,10.563 -95.535,5.75 -188.824,23.988 -280.418,51.39 -5.461,1.629 -10.941,3.906 -16.531,4.317 -65.688,4.75 -117.332,40.101 -170.41,74.48 -38.801,25.141 -73.871,53.602 -105.996,86.41 -13.5,13.781 -25.012,28.481 -33.168,46.121 -8.797,19.032 -19.34,37.239 -28.371,56.16 -18.911,39.629 -38.633,78.622 -64.493,114.45 -22.812,31.601 -37.312,66.429 -31.414,106.922 0.817,5.609 -0.054,11.437 0.368,17.14 3.621,48.918 -3.848,94.367 -35.934,134.227 -14.379,17.871 -19.086,40.133 -22.965,63.461 -8.4257,50.67 -20.1483,101.1 -48.8554,145.27 -10.6484,16.38 -16.1523,33.89 -18.0976,53.45 -3.0078,30.32 -7.7461,60.49 -12.6563,90.58 -2.1289,13.06 -5.4414,26.14 -10.0781,38.52 -10.19141,27.22 -14.421881,55.24 -14.503912,84.09 -0.070313,26.7 -0.160157,53.4 -0.30078175,80.11 -0.16015625,30.63 4.16015375,58.94 18.48049375,87.93 14.9844,30.32 24.6523,63.76 39.5429,94.66 11.6055,24.09 24.25,47.41 42.3517,67.64 8.762,9.79 16.828,21.14 21.82,33.19 14.485,34.97 40.145,59.97 69.364,82 27.417,20.67 52.23,42.9 73.14,71.14 26,35.1 59.399,63.18 98.34,85.77 37.656,21.83 70.668,51.54 106.555,76.6 34.222,23.89 76.261,35.64 105.398,67.76 4.945,5.46 12.141,9.29 18.918,12.6 82.188,40.07 159.824,89.55 246.879,119.57 44.215,27.8 95.859,36.39 143.312,55.61 63.595,25.75 125.645,55.32 188.335,83.29 10.45,4.66 20.39,11.15 31.29,13.96 66.92,17.24 126.95,51.09 190.21,77.15 58.07,23.92 116.26,47.74 176.6,66.16 34.45,10.52 67.08,27.19 100.14,41.95 13.97,6.24 27.3,13.5 42.97,14.67 5.66,0.42 11.85,0.89 16.75,3.39 61.43,31.35 133.13,33.14 193.64,67.81 14.28,8.19 32.91,8.56 49.32,13.31 54.82,15.84 109.16,32.38 165.64,43.04 82.28,15.53 163.36,37.58 244.71,57.81 20.54,5.1 40.88,9.1 62.02,9.01 53.24,-0.23 106.2,7.22 159.81,1.53 27.93,-2.96 57.38,1.29 85.29,6.67 68.05,13.1 136.84,9.65 205.33,12.33 100.16,3.9 197.33,-14.18 292.61,-43.82 7.29,-2.27 14.44,-6.06 21.85,-6.67 55.98,-4.55 106.26,-29.36 159.24,-44.46 20.39,-5.81 40.43,-11.23 61.61,-10.71 48.07,1.16 94.73,-10.49 142,-16.08 39.65,-4.69 70.97,-26.55 90.83,-62.49 6.46,-11.69 11.62,-24.28 19.35,-35.04 26.99,-37.56 31.42,-80.47 33.7,-124.82 2,-38.79 -10.25,-71.46 -35.5,-99.42 -28.39,-31.43 -61.53,-58.86 -100.4,-74.56 -54.18,-21.87 -111.53,-27.14 -167.34,-3.73 -29.79,12.49 -58.36,28.21 -86.47,44.24 -20.05,11.43 -35.67,28.94 -48.8,47.71 -15.27,21.81 -29.74,44.38 -42.43,67.77 -20,36.85 -52.29,56.11 -91.55,60.04 -74.18,7.41 -146.65,22.1 -218.39,41.53 -3.58,0.97 -7.47,0.8 -11.45,1.18 -15.16,-5.08 -20.38,-16.8 -17.27,-31.26 3,-13.99 13.26,-24.5 27.01,-26.62 18.67,-2.89 38.43,-5.42 56.79,-2.4 54.82,9.03 100.73,-14.77 147.31,-36.34 16.98,-7.86 18.86,-29.91 4.95,-43.44 -10.92,-10.63 -22.89,-20.17 -34.01,-30.62 -14.49,-13.61 -31.62,-21.67 -51.2,-23.03 -57.91,-4.02 -112.12,-20.8 -164.94,-44.08 -13.55,-5.97 -29.54,-8.88 -44.41,-8.88 -36.96,0 -71.63,-10.42 -106.23,-20.67 -34.77,-10.3 -70.29,-17.3 -105.15,-26.38 -51.7,-13.49 -104.58,-20.94 -156.02,-34.95 -51.4,-14.01 -101.87,-32.52 -156.22,-32.21 -54.88,-15.98 -109.78,-31.84 -164.59,-48.03 -10.9,-3.21 -21.31,-10.65 -32.15,-11.08 -64.94,-2.57 -120.73,-33.06 -178.97,-56.29 -15.88,-6.33 -32.01,-12.52 -48.56,-16.56 -37.03,-9.02 -74.39,-16.65 -109.82,-31.28 -5.23,-2.15 -11.05,-4.09 -16.59,-4.06 -70.12,0.36 -132.61,-31.61 -202.11,-47.23 -24.48,11.7 -36.31,34.84 -41.74,61.53 -4.93,24.27 -12.36,47.06 -24.49,67 -19.34,2.16 -32.11,-7.28 -45.12,-14.59 -76.49,-42.96 -151.84,-88.02 -229.17,-129.4 -134.47,-71.96 -264.152,-153.49 -405.457,-211.87 -59.609,-24.63 -116.191,-58 -180.929,-69.81 -9.2,-1.68 -17.993,-6.3 -26.602,-10.34 -25.941,-12.18 -52.117,-23.35 -80.496,-29.02 -11.082,-2.21 -21.793,-6.97 -32.227,-11.58 -13.222,-5.84 -20.234,-16.86 -22.347,-31.01 -0.563,-3.76 -1.328,-7.64 -0.961,-11.37 7.672,-77.73 2.637,-156.2 16.726,-233.72 9.567,-52.62 3.86,-106.44 2.012,-159.78 -0.855,-24.65 -0.148,-49.35 -0.148,-77.57" /><g
         transform="scale(1.42023)"
         id="g16"><path
           id="path18"
           style="fill:#231f20;fill-opacity:1;fill-rule:nonzero;stroke:none"
           d="m 13517.6,1408.69 c -4.4,-44.92 -3.4,-89.97 0,-135.03 3.6,44.94 7,89.86 0,135.03 z m 133.5,505.52 c -6.4,-5.03 -10.6,-6.8 -12.4,-9.95 -19,-34.91 -10.7,-69.4 2.7,-103.56 0.3,-0.81 4.5,-0.11 9,-0.11 2.5,32.62 4.8,65.67 6,98.8 0.2,3.51 -2.4,7.11 -5.3,14.82 z M 13469.9,433.261 c -8.3,-49.675 0.3,-100.767 -8.9,-150.998 -0.5,-2.28 1.1,-5.105 2.2,-7.47 1.9,-4.126 5.9,-5.413 9.9,-5.133 6.7,0.451 13.5,6.233 13.9,12.295 0.5,6.581 0.9,13.392 -0.2,19.841 -7.4,43.322 -16.8,86.386 -16.9,131.465 z m 165.8,1757.299 c 20.5,-0.72 40.6,17.31 42.9,38.93 0.4,3.72 -0.6,8.09 -2.4,11.43 -13.3,25.48 -37.9,30.1 -58.6,11.03 -4.9,-4.43 -9.8,-9.3 -13,-14.91 -2.5,-4.27 -3.5,-10.1 -3.2,-15.08 1.5,-19.25 14.5,-30.71 34.3,-31.4 z m 67.8,-1083.66 c -0.6,-11.59 -0.7,-15.62 -1,-19.63 -1.6,-21.02 6.1,-39.55 16,-57.33 5.7,-10.34 15.6,-14.68 27.2,-12.68 5.3,0.92 10.6,2.19 15.6,3.95 36.7,12.73 73.9,24.35 109.9,38.85 34.8,14.04 68.6,30.73 102.4,46.98 19.5,9.34 39,18.19 60.7,20.68 10.9,1.23 21.5,4.56 29.7,11.48 20.1,16.76 44.4,24.81 67.8,34.82 13.5,5.79 28.2,9.85 38.3,21.31 12.1,13.5 28,20.7 43.3,28.86 19.1,10.07 39.5,17.99 56.9,30.14 52,36.07 105.5,69.09 162.8,96.11 5.9,2.85 11.2,7.32 17.1,10.59 45.6,25.57 89.1,54.65 135.6,79.12 34.2,18.08 66.4,40.61 97.7,63.62 15.1,11.15 30.2,22 46.4,31.51 13.9,8.14 27.5,16.75 41,25.37 35.2,22.39 69,46.49 98.2,76.62 5.5,5.68 12.9,9.52 19.4,14.32 26.9,20.01 54.3,39.39 80.6,60.23 54.1,42.91 54.3,43.01 83.6,105.41 17.8,38.06 30.8,77.32 16.6,120.18 -2.1,6.28 -1.9,13.26 -3.2,19.85 -4.4,23.79 -10.2,47.08 -22.2,68.53 -10.7,18.94 -17.6,39.88 -19.3,61.16 -3.9,51.82 -29,97.43 -40.6,146.92 -2.1,8.82 -8.4,16.71 -13.1,24.83 -17,29.37 -41.6,52.52 -63.6,77.84 -10.9,12.71 -23.6,20.24 -40.7,23.37 -26.2,4.85 -52.1,12.47 -78,18.92 -39.3,9.72 -78.8,17.14 -119.5,15.07 -32.3,-1.64 -64.2,0.13 -96.2,5.31 -22.4,3.63 -45.2,5.05 -68.1,-0.09 -39.1,-8.81 -78.4,-17.84 -118.1,-24 -56.5,-8.79 -108.8,-28.61 -159.1,-54.7 -28.7,-14.83 -56.8,-30.59 -85.5,-45.16 -51.5,-26.13 -102.1,-53.85 -150.5,-85.62 -21.2,-13.99 -43.6,-26.32 -65.6,-39.23 -17.4,-10.21 -34.1,-21.03 -49.6,-34.25 -33.6,-28.8 -68,-56.71 -102,-84.95 -3.1,-2.57 -6.1,-5.6 -9.7,-7.26 -23.9,-11.15 -39.2,-31.9 -57.1,-50.02 -18.7,-18.91 -25.4,-40.21 -20.6,-65.95 10.5,-56.07 2.6,-112.46 2.4,-168.7 0,-5.31 -0.3,-11.13 -2.4,-15.83 -9.9,-21.8 -8.8,-44.18 -5.6,-67.03 2.4,-17.22 3.3,-34.67 5.8,-51.89 2.8,-20.07 4.2,-40.15 1.1,-60.18 -3.9,-25.48 -3.5,-50.56 0.9,-76.06 2.7,-15.71 1.6,-32.09 2,-48.18 0.6,-24.14 1.1,-48.28 1.8,-72.41 0.5,-10.7 2.4,-21.4 2.1,-32.07 -0.7,-32.15 -1.6,-64.31 -3.5,-96.41 -1.1,-20.31 0.6,-40.11 4.3,-60.04 3.6,-19.75 5.8,-39.75 7.6,-52.28 z m -499.8,583.18 c -5,12.15 -5.5,24.21 5.8,32.87 14.9,11.44 22.4,27.64 25.4,44.49 3.8,21.42 14.9,36.74 29.9,50.82 13.7,12.89 26.3,26.73 35.1,43.79 8.1,15.78 20.7,28.27 35,38.38 14.5,10.23 26.9,22.15 37.8,35.95 12.7,16.1 28,28.8 48.6,33.82 3.9,0.94 7.6,2.72 11.3,4.37 14.8,6.72 23.6,18.36 23.5,34.54 -0.1,18.74 -2.2,37.47 -3.2,56.22 -0.4,7.98 -1.3,16.16 0,23.94 3.1,19.92 25.5,29.56 43.8,19.3 6.2,-3.51 10.1,-9.56 10,-16.43 0,-11.82 -1.5,-23.63 -2.4,-34.38 5,-3.93 9.3,-3.54 12.4,-1.2 31.2,23.58 52.9,53.52 56.9,93.35 2.3,22.82 -0.2,46.01 -9.3,67.13 -15.1,35.5 -3.4,65.47 16.5,94 9,12.92 22.5,18.78 38.7,16.59 4,-0.54 8,-1.75 11.9,-1.89 38.6,-1.4 65.3,-21.43 84.4,-53.38 2.2,-3.41 4.8,-6.5 7.2,-9.61 0.9,-1.01 2.1,-1.63 3.2,-2.43 8,-4.1 15.9,-2.55 23.4,0.75 31.9,14.16 64,27.84 95.2,43.34 24,11.9 47,26.05 70.2,39.63 11.5,6.8 22.4,14.6 36.2,16.72 9.6,1.47 17,7.57 24.9,12.71 33.8,22 67.7,43.67 107.3,54.3 5,1.34 10.2,4.13 13.9,7.67 15,14.21 34,21.43 51.9,30.55 17.9,9.15 36.1,17.93 53.7,27.53 10.7,5.78 21.1,11.51 33.2,14.09 7.8,1.65 15.2,5.21 22.3,8.77 26.9,13.42 55.7,19.76 85.4,21.43 18.8,1.05 37.4,2.31 55.8,7.24 8.9,2.38 18.7,3.11 27.9,2.18 24.5,-2.49 48.2,0.75 71.6,7.67 20.8,6.16 42.2,7.76 63.8,7.42 41.8,-0.64 82.9,4.18 124,12.05 42.2,8.08 85.5,7.26 128.5,5.24 13.4,-0.63 27,-1.88 40.2,-0.77 30.2,2.53 58.9,-3.6 86.9,-13.59 29.1,-10.39 57.2,-22.73 83.7,-39.13 49.1,-30.36 98.9,-59.58 140.3,-100.74 5.7,-5.62 12.9,-9.59 19.3,-14.52 33.4,-25.91 59.4,-58.06 79.7,-94.93 10.3,-18.88 22.5,-36.28 35.4,-53.6 22.7,-30.67 36.6,-66.32 36.5,-104.69 -0.1,-25.74 6.5,-47.35 21.2,-67.48 2.3,-3.24 3.9,-7.09 6.3,-10.33 24.9,-34.15 25.4,-72.44 18.4,-111.72 -1.9,-10.56 -5.3,-20.75 -4.1,-31.72 1.4,-12.77 11.4,-23.71 23.8,-22.66 28.2,2.36 55.6,6.7 78.4,26.7 34.9,30.6 77.6,47.13 121,61.56 12,3.99 24.5,1.97 35.5,-3.31 14.4,-6.97 30,-13.68 41.4,-24.37 26.3,-24.49 35.3,-56.14 28.9,-91.59 -1.4,-7.82 -5.3,-15.16 -7.7,-22.83 -7.4,-22.98 2.1,-40.04 25.7,-44.62 11.8,-2.29 24,-3.91 36,-3.49 64.4,2.24 124.7,16.91 176.7,57.76 18.9,14.92 39,28.5 59,42.01 18.9,12.71 15.9,34.85 1.2,48.03 -15.5,13.81 -33.1,23.08 -54.4,23.26 -25.5,0.21 -51,0.5 -76.5,-0.47 -23.5,-0.91 -45.4,3.41 -65.5,15.88 -4.5,2.81 -8.7,6.19 -12.6,9.84 -6.7,6.28 -7.3,17.98 -2.2,26.02 5.3,8.23 12.4,14.48 21.8,16.96 20.7,5.45 41.4,12.02 63.3,7.9 30.9,-5.79 55.1,5.94 75.1,28.5 0.9,1.01 1.6,2.14 2.5,3.13 28,30.95 31.4,31.44 67.5,9.33 11,-3.25 20.5,4.17 31,5.23 15.7,1.57 31.3,-0.1 39.9,-13.62 17.4,-27.29 43.7,-27.74 71,-27.15 4,0.08 8.1,-0.02 12,1.01 25.9,6.97 47.4,-3.15 67.8,-17.25 9.9,-6.87 20,-13.8 28.8,-22.03 22.1,-20.75 31.4,-45.96 24.9,-76.48 -7.7,-36.29 -28.9,-63.79 -58.2,-84.05 -29.9,-20.65 -58.1,-43.35 -87.3,-64.72 -36.9,-26.92 -74.9,-52.27 -112.5,-78.25 -3.3,-2.3 -6.6,-4.69 -10.2,-6.29 -71.2,-31.13 -136,-76.18 -211.8,-97.46 -15.4,-4.33 -29.9,-11.87 -44.8,-17.98 -9.9,-4.06 -19.5,-9.83 -29.8,-12.01 -47.2,-9.99 -92.5,-27.09 -140.1,-35.56 -15.8,-2.82 -31.5,-6.49 -47,-10.82 -15.9,-4.45 -31.5,-5.55 -47.7,-1.61 -13,3.19 -26.3,5.36 -39.4,8.24 -12,2.64 -24.1,3.98 -36,0.78 -24.5,-6.68 -48.4,-2.13 -71.2,5.69 -41.8,14.3 -85.1,25.25 -121.9,51.71 -5.4,3.87 -11.7,6.64 -17.9,9.25 -11.7,4.98 -23.9,5.6 -34.6,-1.88 -21.9,-15.3 -48,-24.66 -65.4,-46.33 -1.7,-2.07 -3.8,-4.13 -6.1,-5.34 -43.3,-22.58 -76.4,-58.76 -115.4,-87.06 -35.9,-25.99 -71.8,-51.76 -110.1,-74.19 -6.8,-4.04 -12.8,-9.69 -19,-14.71 -5.2,-4.18 -9.8,-9.47 -15.6,-12.65 -40,-21.98 -75.5,-51.39 -118.2,-68.83 -17.4,-7.13 -33.7,-16.3 -48.7,-28.08 -8.4,-6.58 -18.3,-11.25 -27.6,-16.6 -5.8,-3.35 -12.9,-5.24 -17.6,-9.73 -33.5,-32.46 -78.5,-45.7 -116.6,-70.38 -9,-5.84 -18.6,-10.91 -26.8,-17.75 -20.8,-17.49 -44.6,-29.87 -69.2,-40.78 -32,-14.21 -62,-32.12 -91.1,-51.57 -1.1,-0.74 -2.1,-1.71 -3.2,-2.34 -76.5,-41.73 -146.4,-95.458 -229,-125.98 -22.6,-8.358 -46.6,-13.463 -68.2,-23.813 -20.4,-9.816 -39.4,-22.848 -60.6,-31.6 -22.4,-9.233 -44.8,-18.026 -69,-21.758 -9.2,-1.422 -18.8,-3.372 -27,-7.597 -30.4,-15.689 -63.6,-20.912 -96.5,-27.1 -13.3,-2.508 -25.9,-6.739 -37.4,-14.077 -7.2,-4.598 -12.3,-11.37 -12.2,-19.786 0.5,-30.811 -2.9,-61.967 3.7,-92.335 6.5,-30.51 7.3,-61.153 6.1,-91.985 -0.5,-13.505 0.5,-26.432 3.6,-39.777 6.4,-27.367 11.6,-55.138 6.3,-83.55 -0.7,-3.927 -1.7,-8.328 -0.6,-11.989 9.8,-35.299 2.5,-72.144 10,-107.638 3.3,-15.787 4.6,-31.748 4,-48.014 -0.9,-24.207 0.6,-48.232 8.6,-71.558 2.5,-7.533 3.4,-15.722 4.3,-23.701 4.2,-36.022 11.8,-71.192 25.5,-104.917 2,-4.965 3.1,-10.29 5.2,-15.26 10.8,-26.8329 2.9,-49.942 -14.2,-71.1066 -4.1,-5.1983 -9.3,-9.7172 -14.3,-14.1674 -28.3,-25.1362 -52.8,-27.20728 -83.8,-6.7468 -13.4,8.8591 -26.3,18.5956 -39.6,27.6225 -22.6,15.2787 -34.4,37.4169 -38.9,63.3503 -4.5,26.355 -6.7,53.139 -11.3,79.485 -2.8,15.752 -7.3,31.382 -12.9,46.389 -5.3,14.236 -7.7,27.226 -3.8,42.816 8,32.171 0.9,89.048 -13.2,123.656 12.2,14.503 12.4,32.263 12.5,51.675 0.2,57.919 -8.6,115.086 -11.3,172.733 -1.2,25.403 -5.5,50.652 -8.3,75.986 -1.7,15.413 -11.9,23.821 -24.9,28.846 -13.5,5.254 -26.7,1.791 -37.9,-6.829 -3.8,-2.949 -6.9,-8.653 -7.6,-13.496 -8.4,-57.168 -16.2,-114.322 -5,-172.191 6.6,-34.207 12.6,-68.615 16.9,-103.174 2.8,-22.537 2.9,-45.492 3.2,-68.277 0.3,-25.546 -0.1,-51.026 9.6,-75.334 1.5,-3.647 1.8,-7.858 2.2,-11.843 1.3,-11.736 -3.2,-20.939 -12.6,-27.81 -10,-7.203 -20.8,-12.308 -32.8,-14.929 -6.5,-1.408 -13.4,-1.923 -17.7,-9.132 -2.9,-9.098 4.1,-17.498 4,-26.778 -0.2,-7.949 -0.6,-16.024 -2.1,-23.799 -1.8,-9.272 -15.2,-13.293 -22.8,-7.399 -2.2,1.639 -4.7,3.127 -6.1,5.281 -11.7,18.136 -19.9,37.972 -25.8,58.603 -1.7,5.985 -0.3,13.455 1.5,19.721 15.1,52.492 15.6,106.496 12,159.918 -3,44.001 -9.7,87.774 -10.4,132.078 -0.3,17.356 -3.4,34.647 -5,51.992 -1.8,18.821 -1.7,37.345 4.6,55.707 3.9,11.279 6,23.442 0.3,33.552 -6.4,7.322 -13.3,5.71 -19.9,5.281 -14.1,-0.916 -27.5,3.16 -37.9,11.491 -18.6,15.095 -36.5,31.501 -52.9,49.049 -10.6,11.307 -12.3,26.734 -7.3,41.795 4.7,14.006 8.4,28.657 15.5,41.394 12.5,22.37 22.8,45.619 32.9,69.017 20.2,46.353 52,80.95 100.4,98.625 3.8,1.384 7.5,3.094 11,5.044 11.4,6.33 18.3,15.66 18.1,29.14 -0.2,10.74 -1.1,21.46 -1.3,32.2 -0.4,21.48 -0.3,42.97 -0.8,64.45 -0.2,9.36 -0.4,18.92 -2.3,28.02 -12.6,59.24 -18.2,119.25 -19.6,179.64 -0.4,17.35 2.2,34.76 2.9,52.15 2.6,58.93 8.7,117.91 -2.8,176.64 -3.8,19.96 -3,40.09 -1.2,60.22 0.7,8.1 0.7,16.39 -4.7,23.04 -2.2,2.81 -6.2,5.64 -9.6,5.74 -3.3,0.1 -8.1,-2.32 -9.9,-5.13 -3.4,-5.55 -5.8,-11.98 -7.6,-18.31 -3.4,-11.59 -5.1,-23.75 -9.4,-34.97 -5.3,-13.7 -10.2,-28.45 -19.2,-39.62 -25.2,-31.36 -47.1,-65.47 -76.2,-93.72 -5.7,-5.62 -10.9,-11.99 -17.4,-16.68 -47.1,-34.39 -85.5,-77.58 -121.6,-122.61 -27.9,-34.81 -58.5,-66.32 -93,-94.38 -28.2,-22.89 -61.2,-32.97 -96.1,-38.19 -11.9,-1.78 -24,-2.6 -36,-3.85 -56.9,-5.92 -105.8,41.16 -100.8,98.3 2.5,28.48 12.7,54.86 29.2,78.43 3.1,4.35 6.6,8.96 11,11.72 21.6,13.72 37.8,33.81 57.8,49.49 3.2,2.48 5.8,6.24 9.4,7.59 23.3,8.81 38.6,28.04 57.6,42.67 21.5,16.64 38.7,37.1 56.9,56.75 7.2,7.79 13.1,16.97 18.5,26.18 19.8,33.81 41.4,65.86 74,89.2 7.4,5.3 14.5,12.73 18.4,20.8 5.2,10.79 15.3,14.48 23.8,21.17" /></g><g
         transform="scale(1.00136)"
         id="g20"><path
           id="path22"
           style="fill:#231f20;fill-opacity:1;fill-rule:nonzero;stroke:none"
           d="m 15117.6,976.516 c -31.8,-3.983 -55.8,-19.493 -81.1,-31.489 -5.1,-2.395 -15.1,-3.745 -8.5,-16.696 23.6,4.264 47.8,7.58 71.3,13.322 14.1,3.405 21.8,14 18.3,34.863 z m -318.1,1335.704 c 32.9,9.02 52.2,16.92 71.9,19.12 26.2,2.89 41.2,15.57 49.3,39.43 3.6,10.62 8.9,20.68 13.3,31.04 2.2,5.15 3.5,10.32 -4,15.12 -14.2,-6.05 -29.4,-12.53 -44.5,-18.92 -6,-14.16 -10.8,-27.44 -26.5,-34.87 -19.9,-9.3 -39.4,-20.62 -59.5,-50.92 z m -706.6,-817.96 c -13.5,-25.16 -23.1,-48.17 -37.1,-68.16 -30.5,-43.92 -42.1,-93.64 -44.8,-145.18 -1.4,-25.22 -1.9,-53.14 16.8,-74.95 3.3,1.23 6.2,1.45 6.6,2.57 11.4,32.13 24.7,63.79 32.7,96.74 5.4,22.22 10.5,44.04 19.4,65.28 15.7,37.61 16.3,77.44 13.6,117.41 0,1.18 -2.4,2.21 -7.2,6.29 z m 464.4,925.51 c -30.5,-18.83 -51.7,-42.31 -68.2,-70.35 -11.6,-19.56 -23.6,-38.93 -34.2,-59.01 -16.9,-31.82 -32.9,-64.12 -49,-96.33 -4.2,-8.51 -7.3,-17.5 -2.9,-29.67 36.8,-9.36 72.9,-2.95 106.1,13.75 10.6,-3.3 19.4,-6.07 27.1,-8.5 11.3,7.24 20.1,16.2 30.5,18.96 34.2,9.11 58.6,34.24 87.9,51.13 8.1,4.68 14.3,12.48 13.9,23.22 -30.9,53.85 -57.6,110.65 -111.2,156.8 z M 14047,939.367 c -18.2,-2.579 -22.6,-10.568 -24.6,-20.344 -5.7,-27.891 -11.6,-55.744 -16.6,-83.765 -2.7,-14.87 -4.6,-30.01 -5.1,-45.087 -1.4,-42.583 18.8,-72.453 56.4,-91.259 25.7,-12.842 52.9,-21.12 80.6,-28.181 23.1,-5.843 44.9,-4.954 67.1,3.246 44.7,16.368 89.6,31.875 134.6,47.385 47.5,16.427 90.3,40.145 123.2,79.224 4.4,5.161 12.7,8.957 6,18.752 -43,4.065 -86.4,10.716 -130,11.555 -40.7,0.788 -79.3,8.231 -117.7,19.934 -10.9,3.335 -21.5,7.97 -32.5,10.287 -55.3,11.535 -105.9,31.137 -141.4,78.253 z m -2160.5,482.163 c 12.9,-33.22 3.9,-73.49 25.7,-107.41 3.4,-5.23 0.3,-14.69 0.1,-22.19 -0.2,-7.55 -2.5,-15.65 -0.5,-22.55 10.3,-36.49 19.9,-73.38 33.4,-108.76 12.2,-31.91 29.2,-61.97 43.6,-92.99 15.8,-33.63 39.5,-60.09 69.8,-81.307 15.3,-10.658 31.4,-15.608 48.4,-8.887 65.5,25.884 133.2,47.834 191.7,87.834 44.6,30.44 92.8,52.14 141.3,74.24 26,11.85 52.2,23.46 77.3,36.84 40.4,21.42 79.7,44.55 119.9,66.32 36.5,19.82 76.3,33.92 106.5,64.65 7.6,7.77 19.6,11.56 29.9,16.42 34.4,16.19 68.8,32.67 103.6,47.84 29.7,12.89 59.2,29.28 90.3,34.8 42.3,7.48 80.2,23.07 118,41.45 18.7,9.17 37.7,18.14 57.1,26.12 72.3,29.83 141.4,66.01 209.9,103.44 30.7,16.68 56.7,37.51 79.4,64.06 32.1,37.63 67.8,71.62 108.6,100.44 24.8,17.42 46.3,39.64 67.9,60.95 7.9,7.69 14.9,18.3 17.5,28.77 9.8,38.66 18.1,77.72 25.8,116.87 4.4,22.87 1,45 -8.8,66.76 -15.9,35.08 -35.9,66.93 -62.7,94.75 -23.7,24.69 -47,49.73 -69.8,75.34 -16.5,18.62 -35.4,33.86 -55.2,48.94 -57.6,43.7 -119.5,81.31 -175.1,127.79 -26.1,21.79 -52.9,42.95 -87.4,52.3 -18.1,4.9 -34.9,15.13 -51.7,24.1 -31.9,17.05 -63.5,34.05 -97.5,47.29 -42.4,16.59 -83.8,36.17 -124.9,56.07 -31,15 -61,30.77 -97.1,29.14 -9.2,-0.41 -18.5,4.28 -27.7,6.06 -80.2,15.34 -158.4,42.51 -241.7,39.37 -9.4,-0.35 -18.9,2.29 -28.3,3.57 -75.9,10.28 -152.2,6.51 -228.2,5.53 -51.4,-0.66 -102.7,-4.65 -154,-7.69 -28.5,-1.69 -57,-4.04 -85.3,-7.03 -11.3,-1.19 -22.6,-4.66 -28.8,-16.74 -4.1,-20.56 -1.7,-40.71 6.2,-60.93 17.3,-44.24 33.7,-88.8 49.9,-133.44 11.7,-32.2 24.6,-64.19 33.1,-97.25 10.9,-42.51 18.2,-86.72 6.1,-129.84 -20.2,-71.32 -38.5,-143.57 -74.9,-209.16 -22.5,-40.42 -35.4,-85.19 -43.2,-129.38 -10.5,-59.49 -22.1,-119.89 -16.1,-181.34 1.1,-11.29 0.1,-22.84 -0.7,-34.21 -0.4,-5.57 -2.2,-11.17 -4,-16.45 -4.3,-11.63 -19,-19.89 -32.4,-18.83 -12.9,1.02 -23.1,12.59 -23.2,27.86 -0.5,49.44 -2.3,98.95 -0.4,148.32 1.5,41.61 7.3,83.36 21.3,122.8 14.8,41.64 22.1,84.59 28,127.91 4.9,35.76 8,71.65 14.2,107.35 6.6,37.3 9,76.66 -4.8,112.98 -26.3,69.14 -50.3,139.39 -87.1,204.13 -14.1,24.78 -26.4,50.63 -39.5,75.98 -3.4,6.53 -6.2,13.88 -16.9,11.55 -2.2,-4.6 -4.2,-9.97 -7,-14.71 -8.2,-12.99 -18.5,-17.84 -27.5,-13.47 -9.6,4.65 -15.5,16.82 -14.4,28.74 1,12.01 6.3,21.61 14.7,29.96 4.5,4.43 14.5,6.34 8,17.56 -10.7,0 -22.1,0.9 -33.3,-0.21 -18.5,-1.85 -30.9,-11.29 -37.8,-29.7 -16.7,-44.61 -12.9,-89.92 -5.5,-135.16 1.7,-10.64 9.8,-20.32 15.4,-30.2 3.7,-6.39 8,-12.33 12.6,-19.37 -19.3,-23.49 -33.5,-49.65 -27.9,-78.48 7.4,-37.97 3.3,-75.99 7.2,-113.69 3.8,-37.59 11.4,-74.79 17.6,-112.12 0.1,-0.74 3,-1.03 4.6,-1.54 2.2,2.62 6.1,5.07 6.3,7.87 4.5,45.34 12.5,90.19 16.5,135.7 4,45.4 11.6,90.32 9.1,136.21 -0.5,8.97 3.6,18.49 6.9,27.28 4.3,11.44 15.6,12.55 36.2,1.81 -10.3,-52.6 3.8,-106.65 -1.2,-162.22 -5.1,-56.88 -11.4,-112.97 -22.2,-169.02 -7.6,-39.14 -12.9,-80.51 0.1,-118.71 9,-26.46 10.4,-51.32 8.9,-78.04 -1.7,-32.3 -1.1,-64.7 -1.9,-97.06 -0.6,-27.16 3.7,-52.87 17.5,-76.83 27.4,-47.13 33.5,-100.14 38.6,-152.8 1.6,-15.99 6.8,-29.09 13.6,-42.6 1.6,-3.1 0.8,-7.35 1.2,-11.09 -3.9,-8.61 -7.8,-17.21 -12.9,-28.66 z m 2192.4,327.65 c 7.4,5.73 17.1,10.02 21.9,17.42 34.2,53.44 82.6,94.48 123.5,142.01 6.2,7.2 13.2,13.71 20.1,20.33 11.4,11.02 17.4,24.29 20.1,39.97 12.2,73.23 40.7,142.88 48.3,217.23 0.7,7.42 2.6,15.55 6.6,21.67 19.2,29.63 23.9,64.31 31.2,97.15 7.3,32.08 17.1,62.63 32.3,91.04 29.8,55.51 54,113.36 79,170.98 2.3,5.24 2.9,11.92 6.6,15.67 29.3,29.65 58.4,59.68 89.4,87.54 11.9,10.8 28.9,8.2 43.1,0.05 18.8,-10.83 32.2,-26.82 39.6,-47.11 10.7,-28.48 20.3,-57.33 31.2,-85.73 4,-10.49 7.9,-22.4 15.6,-29.81 22.1,-21.29 41.6,-44.15 57,-70.77 6.3,-10.92 18.4,-14.92 29.8,-10.95 44.8,15.6 89.5,31.66 134.2,47.74 3.5,1.25 6.5,3.97 9.7,6.01 9.8,6.24 12.4,22.33 4.1,29.91 -9.9,8.89 -21.1,16.24 -30.9,25.13 -11.9,10.7 -10.5,29.47 1.9,40.31 15.2,13.18 33.9,16.76 52.3,3.05 20.3,-14.96 41.1,-19.21 64.4,-15.82 31.4,4.53 56.1,-6.08 72.1,-29.19 25.2,-11.63 48.4,7.51 73.6,-6.03 15.3,-21.9 21.2,-53.99 50,-76.26 19.9,-5.63 44.5,-7.95 69.1,-6.45 44.4,2.7 87.4,-3.83 129.8,-15.81 37,-10.45 74.1,-16.35 112.9,-12.26 16.7,1.76 34.5,-0.1 51.1,-3.64 57.6,-12.28 115.8,-22.91 172.1,-40.03 56.4,-17.18 109.6,-43.62 160.1,-74.61 42.4,-25.98 80.8,-56.85 116.4,-91.59 10.8,-10.63 22.1,-21.18 34.4,-29.81 19.2,-13.3 34.8,-29.11 46.9,-49.19 6.7,-11.25 16.1,-21.35 25.7,-30.38 24.1,-22.57 41.1,-49.71 55.4,-79.08 19.9,-41.1 42.2,-81.18 60.1,-123.18 17.7,-41.73 37.9,-83.04 40.5,-129.93 0.7,-13.01 5.7,-25.92 9.7,-38.59 10.2,-32.95 6.7,-63.85 -12.3,-92.9 -8.2,-12.61 -16.2,-25.37 -24.6,-38.68 6.4,-16.66 12.5,-32.49 19,-49.29 -5,-27.14 -21.7,-52.89 -14.4,-82.49 -8.1,-23.27 -14.9,-47.13 -24.8,-69.65 -8.7,-20.04 -27.1,-32.82 -46.4,-40.41 -39.8,-15.54 -73.7,-39.09 -105.3,-67.08 -8.4,-7.44 -19.2,-12.12 -29.1,-17.9 -9.7,-5.79 -21.5,-9.55 -29.2,-17.36 -31.9,-32.23 -72.9,-47.88 -113.1,-65 -34.9,-14.89 -71.9,-25.62 -101,-51.94 -4.1,-3.67 -9.9,-6.42 -15.3,-7.51 -28.8,-5.81 -51.8,-22.1 -75.8,-37.7 -27,-17.58 -52.1,-13.66 -78.4,8.7 -11,9.34 -11.7,30.5 -1.6,41.54 9.4,10.21 21.4,15.72 34.3,19.49 27.2,7.93 55.2,13.41 77.8,33.32 7.9,6.99 20.9,8.4 31.7,11.95 19.9,6.51 39.7,13.25 59.9,18.92 26.3,7.38 49.6,19.08 68.2,39.59 6.3,6.97 13.4,14.36 21.7,18.26 66.7,31.53 117.8,82.19 168.4,134 13.4,13.73 27.2,26.58 34.1,45.03 4.2,11.33 13.6,17.86 22.5,25.18 11.6,9.63 11.7,23.01 10.3,39.72 -28.3,12.99 -52.8,33.21 -75.8,56.03 -20.6,20.49 -45.4,32.44 -75.9,35 -36.6,3.05 -66.2,33.81 -73,69.71 -1.7,9.28 -1.7,18.92 -2.5,28.4 -1.2,15.18 -1.4,30.5 -3.7,45.53 -9.8,64.54 -40.4,97.4 -103.4,112.48 -31.3,7.52 -62.6,15.97 -94,23 -27.6,6.15 -54.6,15.63 -84.2,7.86 -14,-3.66 -30.3,-0.01 -45.4,1.82 -69.3,8.38 -70.6,8.32 -136.1,-25.44 -7.9,-9.74 -6.8,-21.27 -6.8,-32.69 0,-17.14 0.6,-34.33 -0.8,-51.38 -5.2,-66.3 -62.1,-113.57 -128.9,-107.73 -5.7,0.48 -11.5,2.57 -17.1,1.96 -38.5,-4.24 -65,16.03 -88.3,42.83 -20.2,23.16 -36.3,48.4 -46.4,77.96 -25.2,74.06 -54.7,146.1 -98.9,211.53 -12.5,18.74 -20.7,40.54 -30,59.22 -33.5,30 -71.6,37.07 -113.2,34.78 -24.6,-1.36 -49.4,-0.74 -74.2,-0.35 -19.6,0.3 -37.4,-4.41 -54.3,-14.62 -40.7,-24.58 -80.9,-50.26 -126.8,-64.89 -16.6,-5.29 -30.2,-16.26 -41.2,-29.88 -11.2,-14.13 -25.8,-21.99 -43.5,-24.76 -53.6,-8.43 -93.2,-41.34 -130.9,-76.65 -20.9,-19.47 -39,-41.9 -64.2,-56.29 -1.7,-0.92 -3.3,-2.12 -4.5,-3.54 -17.4,-20.04 -32.4,-43.14 -52.8,-59.36 -19.1,-15.25 -39.6,-28.62 -57.5,-46 -32.8,-31.79 -52.2,-70.85 -62.1,-113.74 -19,-81.69 -41.4,-162.09 -72.4,-240.1 -6.3,-15.78 -9.2,-32.89 -13.6,-49.4 -10.9,-40.45 -21.4,-80.95 -32.4,-121.36 -7.6,-27.86 -24.5,-51.29 -37.4,-73.17 -1,-48.91 21,-81.32 54.3,-110.72 36.2,-31.764 75.5,-58.009 117,-81.388 31.7,-17.952 68.5,-22.676 103.3,-31.824 77.6,-20.324 156.5,-32.795 236.7,-36.123 9.5,-0.398 19.6,-0.39 28.3,-3.663 27.5,-10.478 51.5,-2.278 76.3,10.084 57.8,28.863 118.1,51.84 179.1,72.812 9.1,3.085 18.2,5.843 27.6,7.759 78.5,16.2 152.1,47.743 227.9,72.413 38.7,12.58 71.2,35.99 100.7,63.71 22.1,20.84 43.1,43.82 78,42.11 4.4,-0.22 8.9,6.45 13.8,9.17 15.6,8.64 24.4,7.79 35.7,-2.49 13.4,-12.1 22.9,-25.85 19,-44.96 -4.5,-22.21 -16.7,-38.48 -39.2,-44.67 -10.9,-3.01 -22.9,-2.24 -33.7,-5.27 -36.9,-10.28 -73.2,-21.77 -90.1,-60.483 2,-3.433 2.8,-6.339 3.7,-6.401 14.9,-0.98 29.7,-1.576 42.8,-2.177 77.5,36.961 56.9,32.501 119.5,19.201 24.1,27.95 24.3,27.61 53.4,39.42 15.8,6.44 30.8,14.64 46.6,21.33 23.8,10.12 47.7,12.06 71.7,0.11 17.8,-8.8 22,-29.5 6.1,-41.86 -29.9,-23.23 -60.9,-45.192 -92.2,-66.663 -7.5,-5.133 -17.6,-6.292 -27,-9.417 -16.4,5.563 -32.5,11.017 -50.7,17.188 -80.2,-46.726 -171,-68.977 -259,-98.718 -9,-3.035 -19,-4.341 -26.8,-9.225 -36.1,-22.54 -76.3,-23.609 -116,-20.434 -49.8,3.975 -98.7,5.154 -147.2,-9.175 -14.5,-4.256 -30.2,-5.633 -45.3,-5.535 -31.8,0.23 -59.5,-10.486 -85.6,-27.521 -33.7,-21.92 -68.6,-41.245 -108.6,-49.363 -1.9,-0.379 -3.9,-0.812 -5.5,-1.728 -66.4,-37.738 -143.5,-50.354 -209.8,-88.482 -23.2,-13.31 -48.2,-21.58 -74.1,-29.031 -38.3,-11.024 -74.9,-27.74 -112.4,-41.354 -38.1,-13.79 -78.5,-20.191 -117.7,-14.707 -50.9,7.127 -90.8,36.158 -119.4,80.271 -25.8,39.567 -39.4,82.107 -38.2,129.153 0.9,37.979 2.7,75.94 4.2,116.162 -12.4,26.035 -37.1,39.306 -63.9,50.323 -7.3,2.996 -12.3,9.717 -12.2,17.835 0,7.931 4.6,14.223 11.5,18.494 13.4,8.341 28,11.286 43.8,9.827 13,-1.225 26.1,-5.922 40.3,-0.609 14,11.149 16.7,28.049 19.8,44.029 -1.4,15.01 -12.8,24.03 -18.1,36.06 -22,50.21 -47.5,99.3 -49,156.05 -0.3,9.4 -2.1,18.99 -4.7,28.05 -5.9,20.78 -5.9,41.31 -0.3,62.01 1.5,5.51 4.1,11.18 3.8,16.66 -2.6,50.95 19.7,96.35 31.6,144.04 7.6,30.18 26.7,54.6 41.2,81.28 4.4,8.05 11,15.87 2.5,28.59 -18,-0.63 -36.7,-5.04 -48,-21.36 -22.3,-32.22 -57,-50.04 -84.4,-76.32 -18,-17.39 -41.5,-27.98 -64.9,-35.16 -26.4,-8.14 -48.9,-21.54 -68.1,-40.15 -51.9,-50.56 -114.8,-79.69 -183.5,-99.75 -36.5,-10.64 -70.7,-27.33 -103.9,-46.59 -42.6,-24.75 -84.6,-51.96 -133.9,-62.88 -7.2,-1.58 -14.1,-5.83 -20.3,-10.02 -54.2,-36.52 -114.8,-59.36 -175.3,-82.26 -44.7,-16.87 -88.6,-34.69 -129.9,-59.02 -47.7,-28.17 -100.1,-45.74 -151.9,-64.776 -19.6,-7.209 -39.3,-14.399 -58.3,-23.039 -48.5,-22.06 -100.6,-34.532 -149.2,-57.032 -27,-12.522 -58.5,-16.49 -88.4,-21.951 -22.7,-4.174 -44.1,-11.094 -64.5,-21.861 -25.2,-13.33 -49.7,-28.021 -77.3,-36.72 -10.4,-3.273 -20.1,-10.876 -28.3,-18.412 -38.5,-35.004 -86.1,-55.187 -129.7,-81.842 -4.7,-2.953 -10.1,-5.54 -15.5,-6.991 -47.7,-12.682 -95,-26.881 -143.1,-36.829 -26.3,-5.422 -52.4,-10.646 -76.5,-21.861 -23.3,-10.794 -46.8,-16.926 -72,-12.183 -24.5,4.604 -44.7,-4.232 -64.7,-16.228 -29.5,-17.577 -59.7,-33.922 -88.7,-51.949 -22.6,-13.91 -46,-15.311 -71.4,-12.463 -59.3,6.612 -107.7,35.783 -153.6,70.775 -9.3,7.088 -16.4,15.459 -21.2,26.285 -7.7,17.374 -16.6,34.203 -24.5,51.527 -20.7,46.04 -7.1,92.215 35.3,119.44 14.5,9.237 29.2,18.814 47,19.243 33,0.8 63.3,13.673 94.5,21.74 29.2,7.549 57.8,19.825 81.3,40.176 11.5,9.917 22.9,20.422 26.4,39.935 -8.6,21.943 -17.1,47.186 -28.3,71.136 -28.3,60.66 -47.7,124.13 -64.1,188.78 -5.1,20.27 -10.8,40.5 -18.1,60.06 -10.7,28.62 -15.7,58.65 -23.9,87.68 -24.2,86.31 -30.4,176.37 -57.5,261.89 -3.4,10.78 -6.4,22.13 -6.8,33.33 -0.9,19.37 -6.4,37.01 -12.8,55.16 -9.4,26.76 -17.6,54.32 -22.8,82.19 -12.5,67.45 -29.9,133.41 -50.3,198.92 -14.5,47.04 -24.1,95.65 -35.6,143.65 -4.4,18.44 -7.8,37.11 -11.7,55.68 -8.2,39.09 -18.3,77.88 -15.7,118.48 1.3,21.17 -3.5,41.55 -10.1,61.64 -4.8,14.44 -10,29.08 -11.8,44.02 -5.6,45.16 -32.3,80.34 -48.3,116.18 -15.6,6.21 -24.4,2.41 -29.7,-6.09 -13.1,-20.93 -24.8,-42.72 -41.4,-52.7 -8.7,-21.09 -5.6,-36.2 -5,-51.41 1.2,-32.33 -24.3,-61.61 -55.2,-59.02 -39.4,3.31 -78.1,7.48 -110.7,37.94 -29.5,27.37 -59,52.89 -79.9,88.06 -19.6,32.92 -46.9,60.14 -79.2,81.31 -30.3,19.84 -46.4,49.99 -60.3,81.41 -4.2,9.89 -3.9,22.19 -4.2,33.41 -0.1,5.22 2.1,12.11 5.8,15.53 28.5,26.24 57.7,50.92 101.1,37.78 51.3,-15.52 104.1,-21.03 157.6,-22.57 28.4,-0.82 56.6,-6.73 85,-10.22 11.3,-1.39 22.7,-3.22 32.6,5.83 7.4,16.37 -6.2,28.44 -9.7,42.65 -6.6,27.6 -15.4,53.45 -33.1,77.62 -23.9,32.72 -22,73 -10.5,109.93 8.7,27.88 30.8,48.48 59.2,58.27 41.1,14.13 81.3,16.73 120.2,-9.79 36,-24.7 73.4,-47.61 113.3,-66.26 11.6,-5.46 21.6,-15.56 30.9,-24.97 16.6,-16.94 36.7,-27.06 59.4,-32.15 36.8,-8.26 72.9,-17.03 112.1,-14.5 45.2,2.9 90.9,-3.81 138.6,-6.48 8.1,27.08 11.7,52.6 5.8,79.02 -7.7,33.9 -5.7,68.27 -4,102.41 1.3,26.08 23.2,39.63 48.9,32.67 14,-3.81 23.9,-12.59 26,-27.13 1.9,-13.1 2.5,-26.59 1.8,-39.8 -2.9,-49.83 1.6,-98.55 19,-145.7 8.6,-9.52 20.3,-9.48 31.7,-9.95 47.4,-1.95 94.9,-2.6 142.4,-5.67 24.5,-1.59 48.9,-6.91 73.2,-11.14 11.3,-1.96 22.1,-7.69 33.2,-7.69 49.7,0 98.1,-8.68 147,-15.52 58.3,-8.13 116.7,-14.95 174.8,-23.87 70.2,-10.74 135.6,-36.82 203.9,-52.58 9.3,-2.12 18,-7.23 27.2,-8.42 76.8,-9.86 145.2,-43.71 214.7,-74.24 24.4,-10.67 48.6,-22.59 74.1,-29.54 55.6,-15.19 106.4,-40.76 157.6,-66.09 19.3,-9.55 36.2,-21.68 47.3,-40.01 13.5,-22.26 33.2,-36.15 55.9,-46.92 8.6,-4.07 16.7,-9.14 25.2,-13.52 78.8,-40.89 145,-97.48 204.3,-162.7 6.4,-7.03 12.4,-14.83 20,-20.35 44.8,-32.62 82,-73.76 123.3,-110.28 22.8,-20.18 45.1,-41.84 60,-68.45 11.5,-20.72 26.8,-36.76 44.8,-50.93 49.5,-39.15 91.4,-86.21 134.9,-131.5 35.4,-36.73 56.4,-80.6 67.9,-129.64 1.7,-7.42 2.5,-15.02 10.3,-19.79 12.9,-5.06 20.2,6.52 29.9,11.35 23.9,11.97 29.7,9 38.2,-20.18 -25.8,-16.92 -42.5,-42.51 -61.9,-65.56 -3.4,-4 -3.5,-10.41 3.6,-13.23 39.3,31.47 43.3,36.97 57.6,79.41" /></g><g
         transform="scale(1.70477)"
         id="g24"><path
           id="path26"
           style="fill:#231f20;fill-opacity:1;fill-rule:nonzero;stroke:none"
           d="m 15094.8,967.325 c -7.9,-4.587 -7,-9.513 -4.9,-12.998 12.6,-20.776 16.5,-43.548 17.1,-67.305 0.1,-4.447 0.5,-9.016 1.6,-13.287 8.6,-32.338 17.6,-64.559 20.2,-98.171 0.4,-5.099 1.9,-11.063 9.4,-12.894 0.8,3.185 2.4,6.389 2.1,9.363 -2.3,19.944 -4.5,39.906 -7.7,59.708 -1.4,8.705 -4.5,17.233 -7.8,25.505 -4.5,11.627 -7.7,23.475 -6.8,35.922 2,27.091 -8.7,50.006 -23.2,74.157 z m 99.8,262.025 c 23,15.75 46.8,22.01 69.8,30.37 8.4,3.03 16.1,7.86 24.1,11.89 6,3.02 11.7,6.8 17.9,9.01 39.2,13.81 76.1,32.75 113.4,50.45 45.5,21.59 89.8,45.42 128.5,78.44 10.1,8.66 23.6,13.93 32.2,23.7 15,16.92 32.5,30.81 49.1,45.71 26.4,23.74 40.2,52.47 40,88.65 -0.1,15.88 -4.1,28.74 -15.4,38.91 -7.5,6.62 -15.8,12.66 -24.6,17.3 -35.6,18.79 -71.1,38.15 -112.4,41.96 -4.4,0.4 -8.6,2.36 -13,3.21 -47.2,9.16 -94.1,20.43 -142.4,21.61 -7.9,0.19 -15.7,1.71 -23.3,3.18 -68.7,13.24 -137.7,14.54 -207,4.55 -8.8,-1.28 -17.8,-2.09 -26.7,-2.06 -60.2,0.15 -117.4,-14.67 -173.6,-34.11 -11.6,-4 -22.7,-9.45 -33.8,-14.77 -14.4,-6.93 -25.7,-17.99 -35.2,-30.47 -5.3,-6.95 -10.2,-15.06 -4.9,-25.85 2.9,-1.87 6.4,-4.55 10.3,-6.67 30.3,-16.67 63.1,-29.01 89.8,-51.99 2.5,-2.11 5.8,-3.7 9,-4.35 18.8,-3.8 31.3,-16.75 43.4,-30.01 11.3,-12.39 21.9,-25.43 33,-38.04 5.1,-5.87 9.6,-13.17 16.2,-16.75 16,-8.8 23.2,-23.45 29.9,-38.97 4,-9.26 8.2,-18.39 11.9,-27.73 13.1,-32.35 34,-60.19 51.3,-90.06 0.6,-0.96 1.4,-1.76 2.1,-2.59 10.5,-11.71 19.5,-24.46 27.3,-38.13 2.7,-4.7 6.8,-8.59 13.1,-16.39 z m 142.8,-368.021 c 9.5,-24.625 20.5,-48.945 33.4,-72.574 12.2,-22.554 24.6,-45.202 34.6,-68.8 9.3,-22.08 22.2,-41.243 38.2,-58.682 4.5,-4.952 9.5,-9.514 13.9,-14.536 16.3,-18.414 18.1,-39.671 6.6,-61.954 -13.5,-26.392 -33.7,-47.134 -55.6,-66.298 -10.4,-9.056 -23,-14.583 -36.7,-14.805 -30.1,-0.493 -59.5,-1.072 -89.2,10.043 -34.3,12.864 -60.7,33.106 -79.6,63.375 -13.1,20.817 -24.3,42.761 -36.3,64.197 -2.2,3.746 -3.7,8.235 -9.3,7.731 -3.1,-2.64 -2.8,-6.132 -1.8,-9.31 7.2,-23.464 15.2,-46.705 21.8,-70.356 6.6,-23.627 11.8,-47.631 17.4,-71.528 0.7,-3.139 0.2,-6.722 -0.3,-9.96 -1.4,-7.005 -5.2,-12.454 -12.2,-14.724 -7,-2.305 -13.1,0.293 -18.3,5.185 -1.6,1.519 -3.2,3.274 -4.2,5.197 -10.1,18.525 -20.1,37.108 -29.3,54.09 0,11.885 11.8,15.386 12.6,26.877 -2.5,5.539 -5.6,12.701 -9,19.685 -5.5,11.212 -9.2,22.779 -8.9,35.436 0.4,13.545 -2.1,26.704 -5.7,39.696 -1.2,4.294 -2.4,8.705 -2.8,13.127 -3.1,38.328 -16.3,74.08 -28.3,110.121 -3.5,10.634 -7.7,21.151 -7.6,32.514 0.3,18.184 -4.8,35.443 -9,52.77 -7,29.336 -15,58.441 -22.8,87.594 -1.4,5.227 -2.7,10.957 -9.3,11.92 -4.6,-0.129 -6.1,-3.648 -6.4,-6.721 -2.5,-21.195 -1.7,-42.358 1.5,-63.445 3.9,-25.336 9,-50.571 11.1,-76.053 1.6,-19.052 5,-37.541 8.5,-56.23 7.1,-38.463 13.1,-77.136 19.2,-115.775 3.8,-24.296 7.7,-48.492 15.2,-72.084 4,-12.72 6.6,-26.069 8.2,-39.332 4.1,-34.562 14.1,-67.787 21.7,-101.557 2.7,-11.966 4.1,-24.224 6,-36.369 1.7,-11.026 3.2,-22.077 4.8,-33.117 0.8,-5.515 2.1,-10.998 2.4,-16.536 0.6,-8.676 -4.2,-16.313 -11.1,-18.806 -8.1,-2.891 -17.7,1.377 -22.1,10.582 -9.2,19.327 -15.9,39.636 -16.8,61.11 -1.5,43.807 -12,86.293 -18.3,129.384 -2.8,18.712 -7.4,37.107 -14.1,55.098 -13.4,35.888 -16.5,74.098 -22.6,111.599 -2.9,17.627 -6.5,35.142 -9.7,52.717 -1.8,9.871 -3.5,19.768 -5.3,29.639 -1.3,6.565 -1.3,13.769 -4.2,19.516 -7.8,15.627 -8.5,32.134 -9,48.993 -0.7,20.061 -2.9,39.648 -8.8,59.356 -6,20.09 -6.7,41.801 -9.4,62.836 -0.9,6.622 -0.7,13.386 -1.6,20.008 -0.9,6.727 -6.8,12.387 -13.6,12.637 -8.9,0.32 -18.3,1.41 -26.8,-0.65 -25.4,-6.167 -51.1,-4.643 -76.8,-4.737 -22.4,-0.087 -44.8,0.211 -67.1,-0.392 -42.8,-1.143 -68,23.179 -86.1,58.169 -1.6,2.96 -2.2,6.37 -3.6,9.42 -10.6,23.44 -4.5,44.21 12.1,61.7 15.4,16.19 31.7,31.83 49.2,45.55 16.9,13.25 37.3,20.54 59.2,20.56 17.9,0.02 35.8,-1.26 53.7,-1.77 8.9,-0.26 17.8,-0.58 26.7,0.07 5.5,0.41 10.8,2.63 13.9,8.81 1.1,9.47 -5.9,16.04 -10.7,23.26 -9.2,14.15 -16.8,28.98 -22.3,44.96 -7.9,23.25 -16.3,46.37 -24.4,69.54 -5.3,15.09 -7.1,30.67 -4.3,46.3 3.7,20.04 -4.4,35.14 -18.8,47.32 -9.4,7.88 -19.2,15.77 -30.1,21.06 -24.1,11.69 -48.3,23.48 -75.5,26.96 -23.3,2.97 -46.4,7.13 -69.5,10.84 -11.1,1.77 -22.3,2.93 -33.1,5.75 -20.4,5.35 -33.1,19.15 -35.3,40.05 -1.8,17 -5,32.82 -14.3,47.49 -5.8,9.03 -4.2,19.4 -0.6,29.21 8.4,22.88 22.8,41.1 43.3,53.97 27.5,17.2 54.7,34.97 83.4,50.12 26.6,14.11 55.1,24.78 84.1,33.33 17.2,5.06 34.3,10.25 51.5,14.95 8.7,2.34 17.5,4.77 26.3,5.33 39.2,2.49 77.4,11.24 115.8,18.04 86.4,15.29 173.3,19.69 260.7,16.53 18.9,-0.69 37.8,-4.34 56.5,-7.56 46.2,-7.98 92.4,-16.61 138.6,-24.77 49.9,-8.8 96.8,-27.13 144.1,-44.18 14.7,-5.3 29.1,-11.87 43.4,-18.21 19.5,-8.66 37.6,-19.62 53.8,-33.64 18.7,-16.05 38,-31.33 56.6,-47.44 7.5,-6.53 14.8,-13.71 20.7,-21.76 11.9,-16.49 11.9,-34.36 -2.3,-48.94 -14.8,-15.32 -22.6,-32.63 -25.3,-53.33 -1.2,-8.78 -4.1,-17.42 -6.9,-25.88 -5.1,-15.15 -13.4,-27.84 -26.8,-37.6 -13.5,-9.93 -26.8,-19.79 -41.7,-27.89 -26.4,-14.42 -51.9,-30.75 -77.8,-46.19 -8.6,-5.15 -17.2,-10.49 -26.2,-14.95 -13.1,-6.49 -25.2,-13.77 -34.7,-25.55 -11.7,-14.4 -28.9,-21.2 -45.8,-26.93 -23.2,-7.9 -46.9,-14.21 -70.8,-20.28 -8.8,-2.25 -17,-5.03 -24.6,-9.82 -34.4,-21.31 -70.3,-39.05 -108.7,-51.78 -16.7,-5.51 -34.4,-10.16 -46.1,-22.05 -4.2,-10.08 -0.6,-17.54 0.7,-25.12 1.4,-8.24 6.2,-14.13 13.2,-18.51 17,-10.74 33.9,-21.68 51,-32.17 6.7,-4.07 13.7,-7.91 21,-10.54 32.6,-11.73 65.2,-23.46 98.1,-34.18 14.9,-4.86 30,-8.94 43.8,-16.52 2.9,-1.59 6.2,-2.9 9.4,-3.49 40,-7.31 75.8,-26.28 113,-41.13 7.2,-2.87 14.7,-5.66 22.4,-6.63 27.8,-3.52 54.1,-14.315 82.4,-15.266 3.2,-0.105 6.8,-0.886 9.6,-2.516 21.2,-12.453 45,-12.559 68.3,-14.964 54.6,-5.649 108.5,-14.342 160,-34.508 7.3,-2.835 14.8,-5.614 22.5,-6.595 56.3,-7.19 108.1,-27.242 157.5,-54.459 8.8,-4.862 17.8,-9.351 26.4,-14.646 13.2,-8.189 25.8,-6.253 37.6,2.245 7.2,5.193 13.9,11.205 20.3,17.429 5.6,5.437 11.2,11.163 15.4,17.68 16.6,26.167 42.5,30.83 70.3,30.243 16.2,-0.339 27.3,-10.359 30.2,-26.295 1.4,-7.614 1.8,-15.575 1.5,-23.342 -0.8,-24.612 -2.6,-49.113 -8.9,-73.118 -2.3,-8.611 -3.4,-17.563 -4.6,-26.414 -1.8,-13.52 -0.5,-26.578 4.9,-39.437 3.8,-9.209 6.9,-18.945 8.7,-28.748 3.4,-18.56 -0.8,-35.066 -14.1,-49.573 -15.9,-17.41 -31.8,-34.338 -54.4,-43.676 -25.2,-10.464 -49.6,-11.968 -73.8,2.734 -28.6,17.373 -58.9,31.891 -86.1,51.906 -13.3,9.825 -29.6,15.526 -44.3,23.645 -44.1,24.426 -89.6,45.967 -136.7,63.896 -8.3,3.163 -17,5.445 -25.7,7.234 -20.8,4.271 -41.7,7.889 -62.6,11.996 -17.7,3.489 -34.4,9.772 -50,18.958 -41.1,24.302 -85.9,37.072 -133,43.016 -5.6,0.703 -11.7,0.369 -16.5,2.697 -18.6,9.046 -39,9.303 -58.7,13.262 -44.9,9.051 -89.8,18.162 -134.8,26.491 -20.4,3.783 -39.9,-2.012 -58.2,-10.827 -5,-2.365 -8.4,-7.392 -10.3,-17.229" /></g><g
         transform="scale(1.84826)"
         id="g28"><path
           id="path30"
           style="fill:#231f20;fill-opacity:1;fill-rule:nonzero;stroke:none"
           d="m 16090.8,823.728 c 1.9,21.278 -3.9,42.434 -14.8,63.258 -14,26.518 -30.5,51.396 -45.5,77.21 -3,5.209 -7.3,10.315 -12.2,13.672 -17.9,12.194 -32.4,28.852 -51.6,39.372 -5.3,2.9 -10.2,7.24 -14.1,11.93 -10.6,12.86 -24.7,19.04 -40.3,20.62 -19.1,1.95 -35.9,9.09 -52.4,17.79 -22.9,12.09 -47,21.26 -71.4,29.77 -16.7,5.83 -34.1,8.07 -51.5,9.87 -11.8,1.21 -22.6,-2.09 -32.2,-8.95 -28,-20.13 -44.8,-45.27 -36,-81.69 0.8,-3 0.9,-6.16 1.8,-9.09 7.6,-24.618 9.5,-50.74 20,-74.612 2,-4.641 2.8,-9.912 3.7,-14.976 3.3,-19.433 9.9,-37.852 16.3,-56.398 9.4,-27.281 20.3,-54.09 25.9,-82.569 6.1,-30.409 14.2,-60.161 26.6,-88.695 7.5,-17.212 11.3,-35.331 11.2,-54.191 0,-6.191 0,-12.392 0.3,-18.569 1.1,-20.091 8.7,-38.182 18.7,-55.149 7.4,-12.791 20,-17.143 34.5,-14.366 23.4,4.506 46.2,11.28 66.7,23.762 26.4,16.096 52.6,32.647 78.3,49.794 10.2,6.805 19,15.777 28.5,23.681 20.1,16.707 33.6,38.859 49.5,59.104 6.3,8.105 11.7,16.914 17.7,25.3 8.8,12.218 8.5,27.496 14.1,40.682 7,16.604 9.6,33.626 8.2,53.44 z m -415.9,-484.029 c -19.6,8.38 -37.8,3.018 -55.2,-7.179 -5.4,-3.211 -10.3,-5.996 -16.9,-6.375 -10.2,-0.589 -20.5,-2.878 -30.7,-3.29 -22.8,-0.92 -44.4,-5.394 -66.4,-12.692 -26.2,-8.739 -54.2,-12.461 -81.6,-17.487 -11.1,-2.045 -20.5,2.938 -25.4,13.489 -5.2,11.205 -9.7,22.745 -13.9,34.371 -3,8.171 -2.2,16.612 3.4,23.493 16.3,19.939 28.8,42.927 47.4,60.987 9.6,9.301 19.6,18.305 30,26.56 10.7,8.376 22.7,9.295 34.9,2.608 2.7,-1.488 5.5,-2.824 8.1,-4.453 18.6,-11.55 37,-11.058 55.2,0.894 10.4,6.774 21.2,12.85 31.5,19.666 14.1,9.263 24.7,21.697 32.9,36.398 6.8,12.237 9.4,24.677 7,38.599 -3.8,21.24 -6.9,42.216 -15.7,62.613 -20,46.444 -33.8,95.041 -46.1,144.131 -5.3,20.869 -14.2,40.797 -21.3,61.215 -8.8,25.321 -18,50.539 -26,76.11 -8.9,28.589 -19,56.631 -32.2,83.607 -4.4,9.215 -9.2,18.889 -10.7,28.826 -3.4,22.2 -14.5,40.61 -25.2,59.39 -5.7,9.85 -11.8,19.43 -17.4,29.29 -2.5,4.46 -5.7,9.21 -6.2,14.05 -1.8,20.82 -10.1,39.75 -15.8,59.47 -4.1,14.32 -2.9,27.75 3.2,41.99 10.7,24.56 -2.5,49.79 -28.5,58.3 -4.9,1.6 -9.8,2.84 -15.2,4.39 -5.2,6.31 -10.3,12.75 -15.6,18.99 -8.3,9.77 -18.6,11.6 -30.8,8.21 -12.7,-3.55 -22.3,-10.59 -28.3,-22.27 -9.4,-18.35 -25.7,-29.09 -42.9,-38.91 -8.4,-4.8 -17.2,-6.17 -26.8,-5.49 -18,1.26 -34.7,6.56 -49.2,16.9 -13.5,9.66 -27.8,12.73 -43.8,11.62 -4.1,-0.28 -8.2,-0.32 -12.3,-0.12 -16.9,0.81 -28.1,8 -31.8,24.14 -3.8,16.34 -8.9,31.58 -19,44.97 -8.9,30.19 -13,60.57 -1.3,90.92 5.5,14.19 15.8,22.96 31,27.71 39.7,12.4 79.2,13.12 118.6,0.1 35.3,-11.7 71.7,-18.71 107.8,-27.2 29.1,-6.84 58.1,-14.01 87.1,-20.95 12,-2.82 19.2,-0.94 22,5.44 3.4,7.92 -0.4,14.12 -5.3,19.55 -9.4,10.12 -14.5,22.39 -19.5,34.92 -11.3,28.77 -23.1,57.39 -34.6,86.08 -9.8,24.32 -7,48.56 1,72.57 3.3,9.77 7.4,19.24 11.5,28.76 4.1,10.03 4.3,20.01 0.3,30.1 -6,15.36 -11.9,30.75 -18,46.06 -8.9,21.99 -18.7,43.58 -22.9,67.22 -2.4,13.6 -1.1,26.09 2.6,39.44 6.9,25.07 22.2,43.72 40.7,60.64 12.4,11.41 26,19.8 43.6,21.26 9.1,0.77 18.1,3.69 27.1,6.18 36.3,10.1 68.8,4 99,-19.39 20.8,-16.16 37.4,-35.38 50.5,-57.91 12.9,-22.37 17,-46.23 10.5,-71.53 -2.4,-8.98 -4.5,-18.02 -7.6,-26.78 -9.9,-28.96 -11.8,-58.59 -6.9,-88.56 4.3,-26.73 5.2,-53.38 1,-80.09 -3.1,-19.77 -0.7,-39.1 3.4,-58.36 3,-14.22 3.5,-28.08 1.7,-42.8 -2.9,-24.49 -3.4,-49.37 1.6,-73.95 1.7,-8.05 2.5,-16.32 3,-24.54 0.7,-11.2 5.4,-20.08 15,-25.52 22.4,-12.6 43,-28.71 69.3,-33.55 6.9,-1.28 13.4,-5.13 20.1,-7.72 7.7,-2.96 15.2,-7.22 23.2,-8.46 24.1,-3.78 44.5,-15.96 65,-27.75 11.7,-6.72 23.6,-12.54 36.2,-17.45 14.4,-5.65 28.3,-12.34 42.5,-18.68 7.5,-3.38 14.7,-7.65 22.4,-10.36 33.2,-11.63 64.8,-26.94 96.3,-42.29 12,-5.84 23.7,-12.72 34.8,-20.14 16.3,-10.94 33.3,-20.81 51.8,-27.37 37,-13.03 66.7,-36.72 94,-63.73 11.1,-10.91 17.8,-25.22 24.7,-39.1 6.4,-12.91 13.3,-25.61 19.8,-38.471 2.8,-5.486 6.5,-10.903 7.7,-16.762 3.4,-17.643 12,-32.75 20.8,-47.986 5.6,-9.792 10.2,-20.235 15.3,-30.379 8,-16.238 10.9,-32.869 6.3,-50.956 -3.8,-15.247 -2,-30.726 1.8,-45.973 7.5,-30.916 -3.3,-56.518 -23.2,-79.595 -16.2,-18.719 -31.2,-38.446 -48,-56.517 -24.6,-26.41 -50.3,-51.839 -75.7,-77.431 -4.3,-4.333 -9.7,-7.731 -14.9,-11.005 -31.4,-19.715 -62.8,-39.571 -94.6,-58.715 -11.4,-6.892 -23.6,-13.086 -36.1,-17.605 -25.5,-9.198 -47.4,-25.061 -70.8,-37.842 -1.8,-0.978 -3.3,-2.536 -5.1,-3.51 -35.4,-19.1 -70.3,-39.133 -106.4,-56.897 -30.6,-15.084 -64.4,-21.615 -96.7,-32.397 -1.9,-0.656 -4,-1.055 -6,-1.624 -24.1,-6.849 -24.1,-6.849 -40.1,-26.116" /></g><g
         transform="scale(1.55528)"
         id="g32"><path
           id="path34"
           style="fill:#231f20;fill-opacity:1;fill-rule:nonzero;stroke:none"
           d="m 14862.9,674.704 c -2.9,15.61 -5.4,24.76 -15.1,30.052 -2.9,-12.543 -2.9,-12.543 15.1,-30.052 z m -104.7,264.827 c 1.4,11.709 2.9,17.617 2.8,23.481 -0.7,23.494 2.8,46.208 10.7,68.378 3.6,10.39 6,21.23 5,32.4 -0.5,4.79 -1.7,9.69 -10.6,6.65 -5.3,-18.68 -10.2,-38.75 -16.6,-58.33 -4.7,-14.365 -8.1,-28.065 -1.3,-42.648 3.6,-7.665 0.1,-17.199 10,-29.931 z m 80.6,189.159 c -9.8,-6.37 -12.1,-13.51 -12.8,-20.74 -1.7,-17.02 -4.1,-34.18 -3.5,-51.17 0.7,-17.77 -2.2,-33.64 -10.9,-49.22 -8.5,-15.152 -11.3,-32.306 -11.7,-49.568 -0.9,-34.234 -0.5,-68.51 -6.6,-102.434 -0.8,-4.443 0.7,-9.632 2.3,-14.075 1.3,-3.755 5.1,-4.865 9.1,-3.69 8.7,2.61 14.3,9.389 19.2,16.318 13.3,18.963 26.1,38.315 38.4,56.486 -0.9,18.812 -1.5,35.884 -2.6,52.93 -2.9,48.773 -6.1,97.553 -9.3,146.313 -0.3,3.58 -1.2,7.45 -2.9,10.49 -1.8,2.93 -5,4.96 -8.7,8.36 z m 6,-331.977 c 2.8,-6.319 4.8,-13.552 8.7,-19.52 23.7,-35.896 40.8,-75.22 59.5,-113.665 28.3,-58.247 62.3,-112.777 100.1,-165.377 23.1,-32.325 52.7,-53.555 89.7,-65.913 3.6,-1.203 6.9,0.141 10,5.729 -4,13.869 -11.7,27.598 -21.2,40.256 -16.2,21.457 -32.5,42.836 -49.3,63.836 -13.6,17.154 -28.6,33.331 -42.1,50.626 -21,26.98 -33,59.561 -52.5,87.502 -5.4,26.041 -21,46.598 -36.6,66.935 -8.5,11.071 -13.9,22.858 -15.5,36.546 -0.8,6.071 -1.1,12.209 -2.2,18.209 -2.7,14.834 -9.4,25.719 -24.2,39.613 -13.1,-11.915 -20.1,-26.939 -24.4,-44.777 z m 61.3,391.907 c 1,-2.53 2.1,-7.4 4.7,-11.23 19.3,-28.31 39,-56.4 58.4,-84.59 7.6,-11.01 18.3,-14.9 31.4,-16.12 41.4,-3.89 83.3,0.97 124.6,-6.07 1.2,-0.2 2.5,0.09 3.7,0.23 43.8,5.12 87.8,8.62 131.2,15.78 62.8,10.36 125.1,23.64 187.6,35.16 36.2,6.63 71.7,15.47 108.3,20.1 35.8,4.53 63.9,23.43 78.7,58.67 5.7,13.7 11.5,27.08 10.8,42.25 -0.8,15.39 4.1,28.73 13.7,40.84 5.2,6.72 9.5,14.19 14,21.51 10.3,17.04 17.5,34.94 15.9,55.52 -0.8,9.86 1.7,19.33 5,28.72 5.4,14.97 10.6,30.05 14.5,45.46 7.7,31 1.8,58.71 -24.5,79.05 -13.5,10.45 -27.6,20.73 -43,27.87 -26.3,12.21 -54.7,14.01 -82.6,6.71 -20,-5.24 -39.5,-13.22 -58.6,-21.19 -65.6,-27.28 -131.3,-54.32 -196.3,-82.99 -40.3,-17.76 -79.4,-38.19 -118.8,-57.71 -6.6,-3.23 -12.3,-8.03 -18.6,-11.91 -8.2,-5.18 -16.4,-10.74 -25.2,-15.13 -26.3,-13.25 -50.6,-29.86 -74.7,-46.62 -10.1,-6.97 -19.4,-15.12 -29.8,-21.53 -41.8,-25.81 -79.2,-57.58 -118.6,-86.71 -4.8,-3.6 -10.1,-7.08 -11.8,-16.07 z m -356.9,-349.709 c -4.2,25.425 -8.8,50.699 -18.3,74.889 -2.5,6.668 -3.1,14.178 -4.2,21.346 -0.4,2.361 0.8,5.008 0.2,7.311 -8.2,37.079 -0.9,71.793 12.1,106.943 8.5,22.65 13.1,47.2 11.3,72.25 -1.2,17.33 2.6,33.79 9.6,50.02 15.8,36.64 43.9,58.07 81.3,68.49 14.1,3.96 28.8,6.87 41.3,14.9 33,21.16 65.6,42.76 98.2,64.46 8.7,5.83 12.8,14.74 12.4,25.29 -0.4,8.56 -1.8,17.12 -1.4,25.64 0.2,7.66 4.1,13.97 11.1,17.81 8.5,4.6 17.1,4 24.3,-1.71 8.4,-6.8 15.7,-15.02 22.1,-21.16 7.3,-2.57 12,-0.75 16.1,1.81 46,28.2 91.9,56.49 137.8,84.78 6.3,3.86 13.1,7.13 18.6,11.89 27.1,23.54 58.6,39.57 90.7,55.17 29.7,14.45 58.2,31.35 87.4,46.9 14.1,7.5 28,15.36 42.8,21.32 43.3,17.51 84.6,39.05 126.6,59.14 28.8,13.78 56.9,28.97 83,47.14 14.2,9.84 28.1,12.76 44.9,10.43 32.7,-4.52 65.7,-8.28 98.6,-10.78 30.8,-2.34 57.9,-13.08 78.9,-34.94 21.8,-22.71 47.9,-37.7 75.8,-50.93 17.7,-8.42 35.2,-17.31 52.6,-26.37 11.3,-5.89 19.7,-14.58 22.3,-27.65 0.3,-1.2 0.4,-2.52 1.1,-3.5 20.6,-31.23 18.1,-64.9 10.7,-99.13 -3.1,-14.38 -5.9,-28.84 -9.1,-43.19 -8.1,-35.88 -3,-68.19 24.7,-94.72 10.1,-9.72 15.9,-21.6 16.6,-35.8 0.5,-10.11 5.1,-18.74 9.6,-27.5 6.8,-13.06 12.9,-26.48 19.6,-39.58 8.5,-16.81 10.5,-34.74 11.7,-53.35 2.5,-40.7 -15.6,-71.16 -45.9,-95.22 -19.5,-15.45 -42,-23.96 -67.7,-25.62 -41.5,-2.69 -83.1,-5.82 -123.8,-15.23 -15.5,-3.59 -31.2,-7.24 -45.7,-13.55 -25.9,-11.337 -52.8,-19.209 -80.2,-25.977 -30.9,-7.633 -61.7,-16.024 -92.1,-25.571 -31.7,-9.986 -64.5,-14.59 -97,-20.397 -9.7,-1.723 -19.7,-1.999 -29.1,-4.46 -46.6,-12.114 -94.4,-14.347 -141.9,-19.265 -17,-1.76 -34,-4.875 -50.6,-8.878 -42.5,-10.23 -85.9,-10.406 -128.1,-4.579 -52,7.209 -83.5,34.741 -93.8,80.603 -2.5,10.762 -4.4,21.654 -7.4,32.274 -4.7,16.94 -2,31.37 11.9,43.2 3.6,3.05 6,7.41 9.4,11.8 -5,15.38 -10.5,29.5 -26.2,40.25 -8.9,-16.45 -8.8,-32.13 -8.1,-47.86 1.2,-29.39 2.4,-58.793 3.9,-88.171 1.3,-23.25 3.2,-46.46 4.7,-69.697 1,-14.771 4.9,-28.793 8.7,-43.067 13,-48.833 30.8,-95.506 56,-139.377 9.8,-16.956 18,-34.836 26.8,-52.364 12.1,-24.355 28,-45.965 47.4,-65.151 20.2,-20.031 33.9,-45.041 50.1,-68.002 16.9,-23.976 31.5,-49.683 46.7,-74.849 9.5,-15.79 19.4,-31.242 32.3,-39.864 10.3,-4.699 17.6,-2.848 24.9,-2.238 56.3,4.732 112.8,4.199 169.1,3.388 13.6,-0.198 26.7,-3.433 39.6,-7.444 7,-2.135 14.4,-2.992 21.7,-3.486 7.3,-0.495 13.8,7.904 12,15.079 -1.6,5.882 -3,12.028 -6,17.242 -9.1,15.959 -18.7,31.642 -28.4,47.216 -5.8,9.341 -12.7,18.046 -18.3,27.455 -10.3,16.792 -21.3,32.894 -34.1,47.901 -10.3,12.061 -20.7,24.451 -26,39.779 -1.7,4.863 -0.3,9.916 4,13.078 4.2,3.054 9.2,3.486 13.8,0.819 3.2,-1.821 6.2,-4.059 8.7,-6.656 17.9,-18.523 35.5,-37.285 53.4,-55.765 14.7,-15.057 26.8,-31.923 37.7,-49.733 10.9,-17.754 21.5,-35.763 33.4,-52.884 17.3,-25.109 31.8,-30.285 59.6,-22.256 56.4,16.281 112.9,32.471 169.9,46.586 23.7,5.857 46.6,15.27 69.8,23.029 5.8,1.944 11.5,4.669 17.5,5.452 30.8,4.034 58.7,17.348 88,25.777 26.3,7.57 49.3,21.753 74,32.317 32.5,13.932 63.6,31.345 95.3,47.452 28.4,14.459 56.8,28.991 84.8,43.928 7.6,3.973 14.7,8.961 21.1,14.517 20.4,17.644 40.7,35.442 60.4,53.862 8,7.472 14.2,16.757 21.4,25.103 8,9.278 15.8,18.775 24.3,27.5 6.1,6.216 16.5,6.447 23.9,1.889 9.1,-5.503 14,-16.08 10.5,-25.109 -4.1,-10.215 -8.8,-20.234 -14.3,-29.768 -16.5,-28.715 -33.7,-56.955 -50,-85.779 -16.6,-29.662 -40.6,-52.126 -68.6,-70.463 -21.5,-14.088 -43.1,-28.426 -65.9,-40.141 -21.6,-11.144 -45,-19.296 -67.7,-28.24 -12.6,-4.913 -25.7,-8.396 -38.3,-13.174 -8,-3.023 -16,-6.404 -23.1,-11.061 -43.2,-28.436 -89.3,-50.646 -138.2,-67.401 -5.6,-1.929 -12,-4.468 -15.7,-8.746 -13.7,-15.938 -32.5,-22.182 -51.5,-26.354 -38.7,-8.507 -73.8,-25.636 -109.3,-42.09 -9.9,-4.616 -20.1,-9.689 -30.8,-11.784 -36.2,-7.158 -70.4,-20.987 -105.5,-31.699 -10.5,-3.195 -21.4,-4.893 -32.1,-7.6 -52.3,-13.317 -105,-23.424 -159,-27.133 -23,-1.583 -45.6,-9.233 -69.1,-8.808 -36.8,0.655 -73.7,-0.922 -110.2,2.32 -26.6,2.354 -52.7,10.622 -78.8,16.923 -15.4,3.728 -30.6,9.06 -45.9,13.124 -20.3,5.354 -39.5,13.462 -57.9,23.378 -21.6,11.623 -43.6,22.549 -64.2,35.775 -24.6,15.798 -50,30.335 -70.8,51.777 -15.3,15.735 -32.2,30.363 -50.1,42.893 -23.9,16.68 -40.6,39.086 -55.2,63.185 -16.4,27.248 -30.7,55.682 -44.8,84.332 -24.8,50.564 -52.6,99.719 -79.2,149.409 -8.6,16.152 -17.6,32.136 -26.6,48.549 -8.6,1.929 -16.8,3.783 -26.2,5.877 -7.8,11.421 -13.3,25.162 -26.6,33.262 -7.7,4.598 -8.9,14.178 -7.6,23.257 1.7,12.402 12.9,18.458 24.3,12.666 4.4,-2.2 8,-5.633 12,-8.507 0.9,-6.924 1.6,-13.889 2.9,-20.728 0.2,-0.972 4.2,-2.361 5.4,-1.705 1.6,0.906 3.2,3.626 3.1,5.485 -0.4,7.869 -6.3,12.171 -11.8,16.574" /></g><path
         id="path36"
         style="fill:#231f20;fill-opacity:1;fill-rule:nonzero;stroke:none"
         d="m 10729.7,1724.05 c -5,31.8 -11.5,60.96 -21,89.14 -11.6,-1.63 -14.3,-9.2 -17.6,-15.52 -10.5,-20.19 -20.8,-40.48 -30.4,-61.11 -4.8,-10.29 -7.9,-21.36 -11.5,-32.14 -3.7,-10.73 -7,-21.57 -10.6,-32.31 -3.4,-10 -19.6,-12.83 -14.7,-29.99 41.1,21.04 77.1,46.58 105.8,81.93 z m -309.8,-139.69 c 47.9,37.28 94.1,80.1 150.6,108.73 12.1,6.17 20.9,16.48 26.7,28.79 5.7,12.01 10.5,24.45 16,36.53 18.1,39.41 25.9,82.7 46,116.2 -2.6,35.58 -21,53.09 -47.7,63.51 -17,6.64 -33.1,6.15 -47.9,-6.72 -32,-27.78 -61.8,-56.14 -66.3,-102.36 -2.1,-20.72 -11.2,-40.3 -26.9,-55.43 -2.3,-2.27 -7.2,-3.65 -10.3,-2.88 -3,0.74 -6.1,4.41 -7.3,7.52 -3.3,8.32 6.4,18.37 -4.3,27.32 -19.5,-23.03 -38.4,-46.55 -58.7,-68.73 -20.5,-22.42 -42.7,-43.3 -63.7,-65.31 -9.2,-9.6 -17.7,-19.93 -25.6,-30.66 -17.8,-24.51 -36.1,-48.62 -52.2,-74.59 -17.9,-28.91 -41.1,-54.55 -62,-81.61 -7,-9.02 -14.3,-17.84 -20.7,-27.22 -1.5,-2.23 -0.2,-6.39 -0.2,-11.95 73.5,16.42 141.2,42.26 196,92.2 2.7,16.98 -7.8,33.16 6.5,45.76 15,8.94 29.5,-4.75 52,0.9 z m -609.1,-141.77 c 9.75,25.03 27.53,44.85 49.08,60.96 21.6,16.15 39.45,35.52 56.44,56.23 14.46,17.64 30.33,34.23 46.54,50.32 31.07,30.85 62.74,60.92 88.64,96.74 10.9,15.14 26.4,27.35 41.1,39.29 16.5,13.31 30.5,28.19 43.2,45.17 30.8,41.24 64.8,80.3 103.6,114.01 51,44.24 94.5,93.73 125.1,154.06 9.6,19.04 23,33.83 39.9,47.27 37.6,29.82 68.6,66.21 93.4,107.23 27.4,45.33 40,94.39 29.9,147.65 -5,26.14 -9.6,52.36 -15.2,78.38 -1.5,7.22 -4.6,14.69 -9,20.6 -11.2,15.23 -21.5,31.59 -38.7,40.97 -15.1,5.16 -30.5,5.14 -45.5,2.73 -41.3,-6.66 -82.5,-15.02 -120.6,-32.9 -19.7,-9.21 -39.5,-14.8 -60.7,-12.74 -22.1,2.16 -40.6,-4.67 -59.1,-16.02 -53.6,-32.81 -108.2,-63.68 -166.3,-88.55 -31.34,-13.44 -60.71,-31.17 -93.09,-43.13 -21.06,-7.77 -39.84,-21.99 -59.19,-34.04 -14.5,-9.03 -28.41,-19.05 -42.39,-28.9 -51.58,-36.32 -107.45,-65.08 -164.38,-91.66 -25.29,-11.81 -46.24,-28.9 -59.31,-51.9 -24.35,-42.82 -51.5,-84.43 -66.23,-132.32 -12.88,-41.85 -26.98,-83.61 -48.97,-121.62 -33.95,-58.69 -52.06,-122.85 -62.4,-188.48 -10.63,-67.43 -15.6,-135.92 -19.97,-204.14 -4.4,-68.79 8.75,-136.63 17.67,-204.55 2.7,-20.61 12.53,-27.91 35.23,-30 11.38,-1.05 22.89,-0.76 34.22,-2.1 15.83,-1.89 30.09,1.49 43.76,9.44 61.02,35.49 121.71,71.78 170.98,123.1 33.29,34.68 69.75,64.57 112.27,88.9 z m 945.7,224.19 c -49.1,-31.7 -91.5,-64.29 -139.4,-88.29 -3.4,-1.71 -6.6,-3.82 -9.7,-6.06 -23,-16.74 -46,-33.56 -69,-50.35 -29.5,-1.35 -54.8,-15.9 -81,-26.75 -35.2,-14.59 -69.3,-31.82 -103.6,-48.56 -10.2,-4.99 -20.3,-11.01 -28.7,-18.49 -31.5,-27.86 -65.6,-52.1 -99.8,-76.47 -21.7,-15.49 -42.3,-32.48 -66.8,-43.35 -20.2,-8.95 -33.7,-23.74 -44.3,-42.79 -11,-19.95 -23.2,-39.37 -36.4,-57.96 -9.1,-12.74 -21.9,-22.35 -39,-18.68 -19.1,4.09 -28.4,17.72 -31.1,36.5 -0.8,5.36 -2.4,10.61 -3.5,15.35 -7.75,2.08 -11.58,-2.23 -15.48,-6.45 -53.15,-57.54 -109.45,-111.66 -172.17,-158.84 -1.52,-1.14 -3.27,-2.1 -4.5,-3.51 -30.95,-35.29 -73.16,-54.02 -112.73,-76.611 -8.27,-4.707 -18.41,-7.297 -24.93,-13.688 -19.04,-18.66 -41.42,-25.64 -67.46,-25.261 -9.31,0.128 -18.85,-2.54 -27.99,-5.008 -60.33,-16.282 -120.5,-16.492 -180.65,0.879 -5.47,1.578 -11.13,3.468 -16.73,3.55 -82.64,1.239 -134.78,55.729 -187.97,107.899 -7.93,7.78 -12.69,18.93 -18.31,28.86 -4.68,8.28 -6.91,18.4 -12.92,25.4 -28.27,32.89 -37.92,74.31 -53.34,113.07 -3.51,8.82 -6.96,18.04 -8.09,27.36 -6.86,56.59 -23.02,111.95 -20.33,169.86 1.69,36.15 0.16,72.46 0.03,108.69 -0.15,41.93 -0.22,83.56 9.58,125.07 6.96,29.45 6.26,60.64 11.94,90.49 16.7,87.77 27.98,176.58 50.24,263.26 2.94,11.43 4.06,22.4 1,33.74 -4.73,17.53 -0.13,34.03 5.75,50.3 19.38,53.65 34.91,108.59 57.28,161.29 13.89,32.71 32.8,59.73 62.31,79.66 17.35,11.72 34,24.53 50.5,37.44 50.72,39.67 129.75,30.18 168.05,-10.16 2.63,-2.76 5.6,-5.22 8.08,-8.11 32.26,-37.74 70.17,-40.95 113.04,-19.71 64.87,32.13 130.13,63.49 195.16,95.3 49.73,24.31 98.49,50.29 144.76,80.9 10.89,7.21 24.12,11.06 36.54,15.73 32.24,12.12 63.74,26.04 92.54,44.88 46.6,30.5 97.2,52.29 149.5,70.57 7.2,2.51 14.4,5.14 21.3,8.21 77.9,34.29 159.6,49.13 244.4,48.93 5.7,-0.01 11.4,-0.74 17.1,-0.4 50.9,3.01 98.3,-8.07 143,-32.68 13.2,-7.32 27.7,-13.15 42.2,-17.53 71.2,-21.42 121.2,-70.57 164.1,-127.46 42.3,-56.24 81.3,-114.99 124.2,-170.89 6.8,-8.88 13,-19.21 16.1,-29.85 9.6,-33.17 15.7,-67.06 6.7,-101.47 -9,-34.22 -6.5,-67.69 2.1,-101.65 8,-31.38 12.9,-63.51 20.4,-95.02 6.7,-27.99 11.2,-56.21 11.3,-84.87 0.2,-27.18 6.2,-52.82 15.4,-78.11 11,-30.43 20.6,-61.12 27.4,-92.96 5.2,-23.92 15.2,-47.14 25.7,-69.48 9,-19.32 17.5,-38.18 15.9,-59.92 -1.8,-23.92 6.4,-45.05 17.6,-65.26 14,-25.27 21.6,-52.38 28.6,-80.35 10.6,-42.39 22.4,-84.51 37.7,-125.78 13.9,-37.27 20.7,-77.14 30.8,-115.81 4.8,-18.35 10.1,-36.59 15.1,-54.87 2.5,-9.18 6.8,-18.26 7.4,-27.55 3.8,-67.82 33.9,-128.59 50.9,-192.831 1,-3.637 3.8,-6.859 4.5,-10.508 7.5,-43.449 22.8,-83.539 45,-122.031 11.1,-19.18 12.3,-43.828 19.5,-65.481 8.5,-25.25 18.1,-50.16 28.2,-74.769 11.2,-27.11 14.8,-54.981 12.4,-84 -2.4,-30.141 -18.4,-51.371 -46.4,-58.84 -42.3,-11.27 -85.5,-20.508 -129.5,-6.301 -50.4,16.321 -91.8,46.11 -123.9,87.699 -9,11.614 -13.8,27.34 -17.5,41.954 -12,48.468 -36.7,91.839 -54.4,138.027 -12.2,31.801 -23.5,64.281 -42.8,93.269 -8.2,12.301 -12.1,28.024 -15.7,42.723 -8.5,33.551 -21.4,65.169 -37.8,95.469 -11,20.23 -18,41.43 -23.6,63.95 -7.7,31.23 -19.4,61.67 -31.6,91.55 -20.9,51.27 -37.3,103.82 -52.2,157.14 -11.7,42.09 -26.9,83.25 -41.9,124.37 -13.7,37.75 -23.4,76.33 -28.1,116.1 -2.6,21.64 -10.2,39.92 -30,56.33" /><path
         id="path38"
         style="fill:#231f20;fill-opacity:1;fill-rule:nonzero;stroke:none"
         d="m 8282.51,2237.69 c -25.69,-11.32 -50.05,-28.62 -73.18,-48.44 -23.13,-19.83 -46.86,-39.01 -71.07,-57.51 -27.25,-20.83 -55.41,-40.27 -79.33,-65.37 -11.64,-12.22 -25.96,-22.88 -40.91,-30.75 -29.18,-15.36 -53.99,-35.53 -76.39,-59.32 -9.13,-9.7 -19.74,-18 -29.09,-27.51 -29.97,-30.46 -70.13,-36.64 -108.88,-46.27 -65.14,3.45 -125.34,16.64 -160.22,80.45 -2.66,4.86 -6.77,8.91 -9.31,12.18 -14.41,7.18 -27.75,2.56 -40.89,2.29 -19.28,-0.4 -38.13,2.13 -56.09,9.11 -15.25,5.93 -24.2,26.7 -19.57,43.25 4.01,14.37 19.64,25.86 34.98,23.69 11.13,-1.57 21.79,-6.25 32.84,-8.78 9.2,-2.1 18.61,-3.81 28.01,-4.27 5.42,-0.26 10.99,2.3 15.84,3.44 15.68,10.77 20.4,28.22 29.77,42.32 14.17,21.33 31.32,37.83 57.17,44.39 77.28,19.58 142.76,62.23 206.54,107.69 18.68,13.31 36.9,27.01 58.04,36.3 30,13.18 48.98,42.68 79.74,49.87 0.71,7.89 2.32,11.93 1.15,14.85 -11.94,29.84 -8.69,36.55 19.33,45.82 29.62,9.81 59.07,14.34 89.47,2.12 29.29,20.09 59.92,35.03 92.39,46.56 38.44,13.66 71.53,35.15 96.35,68.72 8.92,12.06 20.54,22.63 32.51,31.82 19.96,15.31 28.3,34.92 28.11,59.43 -0.3,36.2 1.57,72.46 -5.8,108.32 -1.91,9.28 -2.58,18.85 -3.39,28.33 -4.09,47.97 22.46,78.83 59.2,103.15 7.53,4.98 17.74,6.82 26.99,8.07 11.28,1.53 22.9,0.3 34.27,1.32 41.55,3.7 74.3,-12.83 100.74,-43.5 11.15,-12.92 21.12,-26.87 31.87,-40.15 4.69,-5.79 10.01,-11.09 16.42,-18.12 20.31,6.13 39.71,13.98 59.88,17.49 19.33,3.37 36.47,9.58 52.54,20.57 13.87,9.49 28.71,7.43 43.68,1.32 29.21,-11.91 34.9,-16.47 62.5,-53.26 116.42,21.08 222.7,65.89 321.13,134.51 2.41,3.54 0.41,8.18 -2.69,13.31 -12.49,20.62 -7.65,34.4 12.73,35.24 39.76,1.63 79.57,2.26 119.34,3.77 17.1,0.65 34.14,3.22 51.24,3.58 46.15,0.98 81.49,-16.75 100.79,-60.64 5.34,-12.15 10.33,-24.46 14.81,-35.12 -1.6,-22.2 -14.95,-31.96 -31.88,-38.23 -5.29,-1.96 -11.21,-2.16 -16.79,-3.41 -27.81,-6.23 -56.46,-10.12 -83.16,-19.53 -26.74,-9.43 -50.14,-27.51 -78.36,-34.33 -1.85,-0.44 -3.63,-1.19 -5.41,-1.86 -19.87,-7.41 -31.85,-27.71 -53.26,-32.6 -20.41,-4.66 -40.89,-9.07 -61.23,-14.03 -5.49,-1.34 -10.8,-3.88 -15.83,-6.55 -45.84,-24.32 -95.93,-36.71 -144.97,-52.09 -10.84,-3.39 -23.72,-5.15 -31.6,-12.2 -30.35,-27.16 -67.19,-43.26 -101.59,-63.54 -3.2,-1.88 -5.73,-4.9 -6.74,-5.79 -1.98,-4.01 -3.36,-5.66 -3.59,-7.45 -6.37,-50.91 -12.6,-101.83 -18.91,-152.75 -1.17,-9.46 -1.67,-19.12 -3.98,-28.31 -12.26,-48.73 -10.65,-97.69 -4.13,-146.96 1.74,-13.14 2.85,-26.88 1,-39.89 -7.23,-50.85 -13.96,-101.9 -24.53,-152.1 -5.57,-26.43 -9.92,-52.57 -8.66,-79.2 3.9,-82.36 -13.28,-163.26 -15.75,-245.14 -18.34,-67.73 -26.31,-138.64 -61.67,-201.16 -14.15,-25.03 -24.06,-50.24 -24.87,-80.62 -0.95,-35.83 -10.19,-71.42 -15.44,-107.18 -3.11,-21.25 -12.84,-39.7 -22.58,-58.34 -7.92,-15.13 -18.05,-30.01 -21.79,-46.25 -9.45,-41.08 -20.1,-81.02 -44.64,-116.4 -6.08,-8.76 -8.7,-21.43 -8.95,-32.4 -0.5,-21.92 -7.99,-40.58 -18.98,-58.99 -18.54,-31.078 -34.83,-63.25 -48.97,-96.769 -10.98,-26.012 -20.13,-53.539 -40.25,-75.309 -5.89,-6.383 -8.62,-17.062 -9.79,-26.152 -2.99,-23.399 -11.72,-44.551 -25.02,-63.25 -13.76,-19.328 -21.32,-40.969 -24.67,-63.321 -8.84,-58.89 -32.26,-113.339 -49.47,-169.609 -9.35,-30.578 -14.62,-62.578 -31.35,-91.281 -6.98,-11.969 -4.23,-29.61 -5.95,-45.117 15.44,-24.692 31.43,-48.332 45.36,-73.133 11.16,-19.848 22.21,-40.348 29.02,-61.918 10.36,-32.86 6.38,-64.262 -21.16,-89.141 -7.07,-6.39 -14.49,-12.59 -20.6,-19.84 -29.91,-35.4684 -68.85,-46.5583 -113.05,-40.6598 -33.85,4.5195 -67.93,10.3789 -99.22,24.6098 -50.73,23.062 -90.19,56.96 -101.25,115.441 -0.99,5.23 -4.98,9.891 -7.55,14.75 -12.82,0.301 -9.24,-9.801 -10.52,-15.609 -13.36,-60.473 -58.03,-86.762 -112.3,-100.461 -18.01,-4.551 -37.89,-2.153 -56.92,-2.161 -32.84,-0.039 -53.25,18.739 -65.37,46.93 -6.67,15.52 -10,32.481 -14.47,47.531 3.46,7.161 4.63,13.758 8.57,17.11 30.14,25.539 45.56,60.699 62.61,94.699 5.06,10.09 10.25,21.371 10.64,32.281 0.97,27.129 8.55,52.559 16.26,78 21.6,71.328 31.77,145.098 47.16,217.75 10.26,48.438 20.17,96.949 30.49,145.379 5.16,24.211 11.18,48.231 16.3,72.449 7.1,33.59 15.63,66.481 30.84,97.7 13.32,27.311 23.16,56.301 35.7,84.021 21.16,46.79 55.33,81.77 100.84,105.29 22.38,11.57 41.21,26.56 57.81,45.71 41.59,47.98 47.68,102.66 31.09,160.85 -7.25,25.43 -18.35,50.2 -30.88,73.57 -12.13,22.61 -18.81,45.55 -18.58,70.93 0.23,26.77 -5.13,52.81 -8.91,79.2 -7.04,49.14 -5.49,98.86 6.57,147.67 8.68,35.15 18.3,70.14 25.01,105.68 15.53,82.29 28.82,165.02 44.49,247.29 7.12,37.38 17.74,74.1 26.79,111.11 2.98,12.19 1.63,22.7 -14.57,30.81" /><g
         transform="scale(2.00012)"
         id="g40"><path
           id="path42"
           style="fill:#231f20;fill-opacity:1;fill-rule:nonzero;stroke:none"
           d="m 15266.3,1186.32 c -2.5,-8.62 -2.5,-8.62 0.8,-14.94 2.4,5.12 3.4,10.16 -0.8,14.94 z m 76,-129.69 c 0,-3.41 2,-5.25 4.9,-5.95 3,-0.74 5.8,0.25 7.2,3.06 1.5,3.02 0,5.5 -2.9,6.64 -4.1,1.6 -8.6,-0.45 -9.2,-3.75 z m -2.8,85.31 c -4.2,-17.43 -7.6,-30.13 -6.7,-43.6 0.4,-7.02 3.1,-12.85 8.7,-17.11 6.1,-4.57 12.3,-9.13 20.9,-8.13 9,5.04 12,14.02 13.5,23.5 0.5,3.48 0.1,8.25 -2,10.84 -9.2,11.68 -18.8,23.2 -34.4,34.5 z M 15227,851.463 c -1.3,-2.099 -3.5,-4.134 -4.1,-6.554 -14.3,-55.963 -28.1,-112.038 -38.4,-168.896 -0.5,-2.714 -0.2,-5.74 0.4,-8.423 0.4,-1.445 2.3,-3.23 3.7,-3.496 1.5,-0.27 4.2,0.705 4.7,1.891 4.1,8.534 8.7,16.979 11.2,25.988 8.6,30.207 20.8,58.965 32.9,87.829 3.6,8.745 7,17.614 10.3,26.494 2,5.344 3.7,10.808 1,17.989 -2.9,3.158 -6.4,7.635 -10.5,11.468 -4.8,4.42 -2.3,13.55 -11.2,15.71 z m 163.1,285.577 c 5.1,13.15 9.2,23.71 13.1,34.36 8.3,22.36 17.6,44.21 28.5,65.41 4.2,8.14 10.5,16.35 6.7,26.14 -3.9,4.57 -8.8,5.5 -13.4,4.11 -10.9,-3.27 -22,-6.36 -32.3,-11.08 -28.9,-13.25 -32,-17.33 -41,-46.82 -0.5,-1.82 -1.2,-3.63 -1.5,-5.49 -1.8,-8.67 -1.5,-17.29 3.4,-24.82 8.4,-12.69 17.1,-25.14 26.1,-37.4 1.4,-1.85 4.9,-2.15 10.4,-4.41 z m 863.9,7.33 c -5,3.61 -10.8,4.04 -16.5,3.46 -27.5,-2.79 -55.2,-3.11 -82.6,-7.61 -23.5,-3.88 -46.5,-10.27 -69.2,-17.04 -28.4,-8.49 -57.3,-14.3 -86.2,-20.18 -34.6,-7.04 -69.1,-14.26 -102.7,-25.64 -4.5,-1.53 -9.1,-2.86 -13.7,-3.79 -39.4,-7.82 -78,-17.98 -115.6,-31.98 -10.7,-3.99 -21.8,-6.79 -33.3,-8.04 -7.5,-0.81 -15,-2.68 -22.3,-4.85 -33.8,-10.08 -68.7,-16.02 -102,-28.15 -18.7,-6.832 -38.1,-11.945 -58.1,-14.45 -40,-4.994 -78.1,-17.419 -116.2,-29.819 -9.9,-3.25 -19.7,-6.939 -30.3,-8.06 -4.7,-0.494 -9.2,-2.244 -13.8,-3.504 -17,-4.685 -27.6,-15.139 -32.7,-32.517 -4.9,-16.525 -9.3,-32.738 -10.1,-50.198 -0.9,-18.968 -3.9,-37.877 -6.6,-56.716 -4.7,-32.074 -8.9,-64.171 -10.5,-96.58 -0.5,-9.784 -3.4,-18.719 -12.3,-24.562 -4.6,-3.032 -12.9,-1.106 -14.6,3.984 -1.5,4.454 -3,9.175 -3,13.778 0,28.61 0.6,57.182 4.1,85.655 3,25.539 5.5,51.163 8.1,76.761 0.4,4.615 1.4,9.449 -1.8,13.685 -1.7,-0.586 -4.2,-0.66 -4.9,-1.826 -2.9,-4.889 -6.3,-9.844 -7.6,-15.234 -5.9,-25.037 -16.3,-48.628 -21.6,-73.976 -7.7,-36.351 -20.1,-71.554 -35.2,-105.689 -4.2,-9.554 -8.4,-19.368 -10.6,-29.502 -2.8,-13.104 -6.8,-25.709 -12.4,-37.997 2.3,-13.109 11.6,-21.925 18.4,-32.078 7.2,-10.765 6.7,-14.154 -3.7,-23.974 -2.1,-1.91 -4.6,-3.3 -7.2,-5.105 6,-12.79 14.8,-19.088 26.5,-22.018 15.8,-3.99 31.9,-5.656 48.2,-5.42 42.9,0.616 85.8,0.805 128.7,2.295 24.8,0.86 49.4,3.619 74,6.058 37,3.66 74,7.641 111,11.845 7.5,0.856 14.8,3.321 22.1,5.051 29.7,6.964 58.8,16.048 89.7,17.628 17.9,0.92 35.9,4.525 53.2,10.329 18.9,6.34 34.1,16.534 43.2,34.949 2.5,5.058 5.9,9.795 9.7,14.044 6,6.773 17.3,6.365 22.8,-0.506 5.9,-7.544 11,-15.753 12.5,-25.367 2.7,-17.054 2.6,-34.299 -0.2,-51.268 -1.9,-11.904 -9.7,-20.888 -20.2,-26.388 -11.8,-6.165 -24,-11.94 -36.5,-16.36 -43.1,-15.218 -86.5,-30.053 -129.9,-44.411 -14.5,-4.779 -29.5,-7.599 -44.3,-11.48 -22.1,-5.814 -44.6,-10.74 -66.2,-17.983 -18.4,-6.15 -36.9,-9.464 -56.1,-9.836 -17.1,-0.324 -34.3,-0.048 -51.1,-4.523 -0.9,-0.246 -1.9,-0.4 -2.8,-0.406 -39.1,-0.15 -78.5,-3.39 -117.2,0.48 -38,3.801 -74.3,17.08 -104.5,42.758 -7.9,6.779 -16.5,12.893 -24.8,19.219 -22.4,16.944 -41.2,36.793 -52.8,62.811 -8.5,19.153 -17.4,38.161 -25.6,57.426 -2.2,5.154 -3.8,10.974 -4,16.534 -0.4,16.134 -2.7,32.389 1.8,48.378 2.1,7.499 1.6,15.083 0.5,22.704 -2.6,17.358 0.2,34.126 5.4,50.705 5.5,17.265 12.1,34.364 15.4,52.058 4.9,26.262 10.1,52.032 24.4,75.265 3.2,5.33 6.1,12.005 3.8,18.829 -2.8,3.564 -6.3,4.505 -10.2,3.699 -17,-3.494 -34.1,-4.449 -51.3,-4.109 -11.6,0.224 -22.7,-2.375 -33.7,-5.789 -5.4,-1.691 -10.9,-3.721 -16.5,-4.49 -7.1,-0.975 -13.4,1.629 -17.1,8.019 -6.7,11.734 -10,24.678 -11.6,37.998 -0.8,5.993 1,11.88 5.8,15.389 14.8,10.744 25.9,25.368 39.7,37.037 18.4,15.608 39.2,27.02 63.9,29.63 14.2,1.5 28.3,4.63 42.5,5.58 18.8,1.25 29.3,11.23 35.8,27.95 15.9,40.93 17,41.06 7.2,82.92 -4.4,18.91 -5,37.68 -5.3,56.64 -0.4,28.39 -5.3,32.69 -32,22.8 -9.9,-3.64 -19.5,-7.85 -29.2,-11.85 -20.8,-8.56 -42.5,-11.04 -64.6,-8.97 -23.7,2.23 -40.9,15.99 -52.1,35.92 -11.6,20.78 -4.5,49.44 14.2,64.77 9.5,7.86 19.3,15.48 29,23.2 12.1,9.63 25.5,16.74 40.6,20.32 11.1,2.64 22.3,4.92 33.6,7.1 10.3,1.99 20.6,3.61 32.4,5.66 1.9,1.49 5.4,3.38 7.7,6.2 8.9,10.61 19.9,14.14 33.3,11.4 4.7,-0.96 9.4,-1.87 14.1,-2.05 11.5,-0.44 22.5,7.47 26.2,18.6 3.1,9.23 3.1,18.7 1.9,28.28 -1.1,7.55 -2.4,15.13 -2.4,22.71 -0.1,14.79 6.5,23.48 20.6,26.9 13.9,3.36 27.9,6.35 42,8.65 21.2,3.46 44.6,-8.79 54.7,-28.19 3.1,-5.86 5.2,-12.18 7.3,-17.2 11.9,-9.88 24.5,-12.97 38.3,-13.39 44.9,-1.4 89.2,2.33 133.3,12.03 40,8.79 80,18.17 121.1,20.82 2.8,0.19 5.8,0.37 8.5,1.18 49.8,14.88 101.8,14.05 152.8,20.41 28.4,3.54 56.8,6.55 84.7,13.17 9.2,2.19 18.8,3.92 28.2,4.09 39.4,0.72 77.9,7.16 116,15.95 13.2,3.04 26.3,4.23 39.6,0.24 14.2,-4.25 23.7,-12.02 23.1,-28.26 -0.4,-11.87 3.8,-22.4 9.7,-32.46 2.4,-4.1 4.8,-8.28 6.5,-12.7 2.9,-7.62 2.2,-15.25 -3,-21.62 -11.1,-13.66 -23.7,-24.82 -43.1,-24.16 -15.2,0.51 -30.3,-4.21 -45.7,-1.18 -1.8,0.36 -3.8,0.28 -5.7,-0.09 -32,-6.54 -64.6,-4.82 -97,-4.87 -10.6,-0.01 -20.8,-1.02 -30.3,-6.56 -8.3,-4.86 -17.7,-7.57 -27.3,-7.67 -18.2,-0.21 -36,-3.99 -53.9,-6.5 -13.2,-1.84 -26.4,-4.23 -39.8,-2.2 -10.7,1.61 -21,-0.81 -30.7,-5.16 -16.7,-7.5 -34.2,-11.38 -52.6,-12.65 -9.4,-0.66 -18.7,-3.4 -28.1,-4.98 -9.4,-1.58 -18.8,-3.76 -28.3,-4.13 -16.3,-0.61 -32.2,-2.05 -47.7,-7.96 -6,-2.3 -13.1,-2.56 -19.7,-2.34 -29.7,0.99 -58.8,-4.56 -88.2,-7.8 -16.7,-1.83 -28.2,-9.9 -34.7,-25.69 -12.1,-29.05 -25.8,-57.46 -36.8,-86.9 -8.3,-22.41 -18.7,-43.8 -28.2,-65.66 -5.6,-13.1 -10.9,-26.42 -15.6,-39.87 -2.5,-7.09 3.7,-13.17 11.3,-11.8 2.8,0.51 5.6,1.26 8.3,1.97 28.7,7.39 57.4,14.15 86.7,18.63 24.4,3.74 48.4,10.18 72.3,16.98 23.8,6.78 47.9,12.86 72.3,16.96 32.1,5.4 62.9,15.73 94.5,22.89 36.2,8.2 72.5,16.15 108.7,24.2 2.8,0.62 5.6,1.08 8.4,1.73 34.4,7.99 68.5,16.83 103.1,23.77 32.7,6.56 65.8,11.24 98.7,16.56 15.1,2.42 30.2,5.67 45.3,6.26 29.6,1.16 58.6,6.03 87.7,10.68 14,2.24 28.6,0.7 42.6,4.47 1.8,0.48 3.8,0.54 5.7,0.63 10.7,0.48 19.6,-5.82 19.7,-16.27 0,-14.91 4.8,-26.67 13.3,-39.24 8.5,-12.76 6.6,-29.33 0.3,-44.03 -2.7,-6.55 -8,-10.83 -15.3,-11.11 -7.3,-0.28 -12.6,3.47 -16.2,9.91 -3.1,5.76 -3.5,13.05 -9.3,17.34" /></g><g
         transform="scale(1.37513)"
         id="g44"><path
           id="path46"
           style="fill:#231f20;fill-opacity:1;fill-rule:nonzero;stroke:none"
           d="m 16110.2,1295.63 c 4,-11.5 9.7,-25.57 13.9,-40.07 10,-34.53 20.1,-69.07 28.6,-103.99 4.6,-19.19 11.3,-36.91 22.4,-53.11 14.7,-21.32 20.4,-43.81 16.8,-70.56 -4.3,-31.569 4.7,-60.563 32.8,-80.394 13,-9.183 20.3,-22.077 25.3,-36.999 10.9,-32.863 23.1,-65.243 38.7,-96.297 11.3,-22.592 10.4,-45.567 -1.1,-67.934 -6.4,-12.305 -12.8,-24.682 -20.3,-36.28 -14.3,-22.055 -44.4,-27.233 -65.5,-11.351 -7.6,5.789 -15.1,12.456 -20.9,20.049 -15.9,20.586 -37.4,32.556 -60.7,41.95 -14.2,5.681 -28.3,11.346 -42.7,16.268 -12.5,4.227 -21.7,-2.755 -22.4,-16.404 -2.6,-48.592 1.5,-96.667 9.7,-144.605 6.6,-38.15 11.3,-76.609 16.8,-114.935 0.2,-1.366 0,-2.863 0.5,-4.116 19.7,-50.99 1.7,-101.226 -3.2,-151.687 -0.4,-3.832 -3.2,-7.525 -5.2,-11.073 -2.9,-5.076 -14.3,-5.616 -18.5,-1.338 -5.1,5.204 -8,11.482 -8.4,18.456 -0.9,12.419 -1.1,24.892 -1.3,37.348 -0.2,9.693 -0.5,19.43 0.2,29.08 3.9,53 -4.9,104.842 -13.5,156.749 -8,47.793 -15.7,95.627 -22.9,143.551 -1.9,13.604 -1.7,27.583 -2,41.405 -0.9,45.692 -1.5,91.395 -2.5,137.086 -0.2,9.672 -0.5,19.453 -2.2,28.957 -4.2,25.009 -11.7,48.243 -34.1,63.963 -12.7,8.86 -21.7,21.041 -27.5,35.741 -5,12.73 -15.8,19.17 -28.8,21.08 -13.7,2 -27.6,2.64 -41.3,4.31 -9.6,1.18 -19.4,2.24 -28.5,4.93 -12.6,3.68 -20.5,17.84 -17.7,29.21 2.5,10.36 12.7,17.21 25.2,17.88 17,0.9 32.5,-5.76 48.8,-8.75 8.5,-1.55 15.4,7.95 12.5,16.53 -5.1,15.04 -13.3,27.57 -28.2,34.23 -15.1,6.79 -30.4,13.28 -46.1,19 -12.5,4.59 -20.6,13.01 -27,24.29 -29.6,51.62 -27.4,103.23 0.6,154.2 18.8,34.06 49.9,52.24 87.4,56.4 28.8,3.21 57,10.02 86.3,10.92 20.4,0.64 40.9,7.97 58.2,20.34 15,10.77 30.6,11.47 47.4,5.98 6.5,-2.14 13.3,-3.66 20.1,-5.1 16.2,-3.45 26.6,-13.53 34.3,-27.67 14.4,-26.35 13.1,-46.19 -5.9,-68.8 -5.4,-6.32 -12,-11.59 -17.8,-17.42 -5.1,-4.94 -8.9,-10.59 -10.3,-21.02" /></g><path
         id="path48"
         style="fill:#231f20;fill-opacity:1;fill-rule:nonzero;stroke:none"
         d="m 7436.95,346.059 c 5.48,-14.028 11.4,-30.008 17.97,-45.719 6.77,-16.18 8.96,-33.039 8.73,-50.32 -0.18,-13.641 -4.38,-25.711 -12.36,-37.231 -35.63,-51.437 -36.62,-52.238 -101.11,-62.348 -13.24,-2.07 -26.3,-4.91 -42.82,1.391 -16.91,18.648 -37.29,38.727 -54.8,61.059 -24.29,30.988 -37.34,65.281 -28.49,106.5 5.21,24.281 7.84,48.941 20.9,70.679 8.01,13.34 10.65,28.129 14.65,42.86 6.96,25.609 14.89,51.429 26.42,75.218 20.37,42.043 58.02,64.641 100.98,78.184 20.52,6.457 41.52,4.219 60.75,-7.312 11.43,-6.86 23.74,-12.391 34.65,-19.969 34.89,-24.242 44.05,-68.84 21.15,-105.422 -10.04,-16.047 -21.28,-31.707 -34.12,-45.559 -16.05,-17.332 -26.99,-36.55 -32.5,-62.011" /><path
         id="path50"
         style="fill:#231f20;fill-opacity:1;fill-rule:nonzero;stroke:none"
         d="m 7667.6,2526.33 c 6.93,-1.3 25.64,-4.79 44.33,-8.35 33.81,-6.44 67.5,-12.19 102.07,-4.03 8.89,2.1 18.9,0.68 28.21,-0.57 7.97,-1.07 13.8,-6.95 16.28,-14.4 3.2,-9.6 1.14,-19.06 -6.03,-26.38 -3.91,-3.98 -8.83,-7.67 -14.01,-9.57 -10.7,-3.92 -23.07,-4.51 -32.6,-10.13 -19.82,-11.67 -40.39,-12.58 -60.69,-5.82 -35.19,11.72 -71.07,12.42 -107.42,11.82 -9.31,-0.15 -18.96,1.65 -27.97,4.23 -17.69,5.07 -22.7,27.56 -10.49,41.92 14.94,17.58 34.15,23.27 68.32,21.28" /><path
         id="path52"
         style="fill:#231f20;fill-opacity:1;fill-rule:nonzero;stroke:none"
         d="m 7821.03,2282.8 c 2.59,-16.97 -9.89,-24.26 -21.69,-29.14 -27.96,-11.58 -56.18,-23.13 -85.28,-31.17 -51.01,-14.08 -102.74,-25.62 -154.24,-37.93 -5.36,-1.28 -11.23,-1.03 -16.8,-0.65 -12.5,0.87 -24.51,13.57 -25.59,26.44 -0.88,10.61 6.38,22.74 16.74,27.19 5.16,2.23 10.5,4.61 15.99,5.45 78.53,11.95 156.69,25.63 233.6,45.94 12.53,3.31 26.29,5.22 37.27,-6.13" /><path
         id="path54"
         style="fill:#231f20;fill-opacity:1;fill-rule:nonzero;stroke:none"
         d="m 6451.12,2521.93 c 28.64,-15.95 62.6,-15.01 96.83,-15.59 24.41,-0.42 48.84,-5.63 73.06,-9.81 13.92,-2.4 23.38,-12.07 29.72,-24.41 5.61,-10.95 5.35,-21.93 -1.92,-32.14 -8.12,-11.4 -23.95,-18.3 -34.86,-11.18 -34.3,22.37 -72.25,19.26 -110.04,19.36 -15.15,0.05 -30.41,-0.14 -45.44,1.47 -22.14,2.36 -38.46,16.82 -38.99,34.78 -0.58,19.26 8.67,32.37 31.64,37.52" /><path
         id="path56"
         style="fill:#231f20;fill-opacity:1;fill-rule:nonzero;stroke:none"
         d="m 8222.36,2572.94 c -4.07,0.67 -11.58,1.43 -18.84,3.2 -10.01,2.42 -19.9,14.35 -20.83,24.53 -0.93,10.16 2.96,19.31 10.99,24.54 10.92,7.13 22.83,13.32 35.1,17.7 19.38,6.92 39.44,11.96 59.18,17.88 12.99,3.9 26.08,3.84 39.1,0.67 13.53,-3.29 23.28,-11.74 30.21,-23.7 11.07,-19.12 1.07,-44.54 -19.85,-50.11 -3.63,-0.97 -7.37,-2.14 -11.06,-2.13 -30.29,0.07 -60,-4.02 -89.29,-11.63 -3.57,-0.93 -7.49,-0.53 -14.71,-0.95" /><path
         id="path58"
         style="fill:#231f20;fill-opacity:1;fill-rule:nonzero;stroke:none"
         d="m 7559.09,2396.17 c -8.24,-24.5 -26,-39.81 -47.5,-52.01 -19.71,-11.17 -39.37,-22.42 -59.05,-33.63 -11.65,-6.64 -22.61,-6.16 -31.57,1.37 -12.9,10.83 -17.77,28.02 -9.55,40.39 5.01,7.55 11.99,16.62 19.88,18.95 38.03,11.23 76.64,20.54 115.17,30.03 2.83,0.69 6.63,-2.57 12.62,-5.1" /><path
         id="path60"
         style="fill:#231f20;fill-opacity:1;fill-rule:nonzero;stroke:none"
         d="m 13821.8,1153.12 c 7.6,-21.1 6.6,-43.02 -0.2,-66.64 -20.7,-8.37 -37.7,-3.07 -53.3,9.54 -9.7,7.86 -11.3,19.09 -10.9,30.95 1,30.31 12.7,40.42 43.4,36.93 3.7,-0.42 7.6,-1.43 10.9,-3.09 3.3,-1.65 6,-4.47 10.1,-7.69" /><path
         id="path62"
         style="fill:#231f20;fill-opacity:1;fill-rule:nonzero;stroke:none"
         d="m 11098.4,2060.53 c -20.8,-0.79 -37.9,12.58 -40.1,31.39 -2.2,18.65 13.2,37.19 32.4,38.88 20.7,1.83 40.7,-17.04 40,-37.78 -0.7,-17.92 -14.5,-31.82 -32.3,-32.49" /><g
         transform="scale(1.35618)"
         id="g64"><path
           id="path66"
           style="fill:#231f20;fill-opacity:1;fill-rule:nonzero;stroke:none"
           d="m 16258.3,264.264 c 2.6,-0.737 5.9,-0.714 7.7,-2.345 10.3,-9.211 20.4,-18.523 29.9,-28.434 4,-4.113 4.1,-10.13 1.9,-15.594 -2.9,-7.213 -12.9,-12.469 -20.4,-11 -15.8,3.064 -32.8,21.043 -35,36.954 -1.3,9.969 7.6,21.511 15.9,20.419" /></g><path
         id="path68"
         style="fill:#231f20;fill-opacity:1;fill-rule:nonzero;stroke:none"
         d="m 5342.51,1999.54 c -16.98,0.43 -34.01,17.22 -33.43,32.96 0.52,13.96 19.07,26.65 38.96,26.62 13.16,-0.02 26.17,-12.67 26.05,-25.32 -0.19,-17.97 -15.57,-34.66 -31.58,-34.26" /><path
         id="path70"
         style="fill:#231f20;fill-opacity:1;fill-rule:nonzero;stroke:none"
         d="m 7705.17,250.121 c -17.17,-0.883 -30.14,10.027 -30.45,25.629 -0.36,18.02 12.71,32.051 30.87,33.129 15.07,0.902 27.41,-12.438 27.07,-29.238 -0.35,-16.801 -11.42,-28.692 -27.49,-29.52" /><path
         id="path72"
         style="fill:#231f20;fill-opacity:1;fill-rule:nonzero;stroke:none"
         d="m 6911.97,2885.29 c 15.4,0.35 30,-12.14 30.57,-26.15 0.56,-13.92 -13.88,-28.14 -28.68,-28.22 -14.22,-0.08 -27.06,14.09 -26.93,29.71 0.11,12.83 11.82,24.37 25.04,24.66" /><path
         id="path74"
         style="fill:#231f20;fill-opacity:1;fill-rule:nonzero;stroke:none"
         d="m 5190.27,866.41 c 0.68,13.469 12.68,25.559 25.4,25.578 12.76,0.012 25.11,-12.129 25.73,-25.289 0.6,-13.07 -11.22,-24.449 -25.53,-24.551 -14.35,-0.097 -26.26,11.184 -25.6,24.262" /><g
         transform="scale(1.35134)"
         id="g76"><path
           id="path78"
           style="fill:#231f20;fill-opacity:1;fill-rule:nonzero;stroke:none"
           d="m 16280.6,1517.59 c -8.8,0.05 -16.1,6.66 -16.5,14.93 -0.4,10.13 7,18.72 17,19.53 9.7,0.78 18.9,-7.65 18.9,-17.37 0,-9.35 -8.9,-17.15 -19.4,-17.09" /></g><path
         id="path80"
         style="fill:#231f20;fill-opacity:1;fill-rule:nonzero;stroke:none"
         d="m 5374.05,1199.57 c 0.79,-12.43 -10.07,-23.91 -24.71,-26.12 -11.52,-1.74 -22.77,6.57 -24.44,18.06 -2.04,14.01 6.97,26.57 20.66,28.81 13.85,2.26 27.66,-7.8 28.49,-20.75" /><g
         transform="scale(1.70785)"
         id="g82"><path
           id="path84"
           style="fill:#231f20;fill-opacity:1;fill-rule:nonzero;stroke:none"
           d="m 16299.2,996.782 c -1.1,-8.099 -7.4,-12.918 -15.9,-12.175 -7.4,0.634 -12.7,6.613 -11.4,12.743 1.8,8.68 10.8,14.23 19.6,12.03 4.9,-1.23 8.5,-7.06 7.7,-12.598" /></g><g
         transform="scale(1.83719)"
         id="g86"><path
           id="path88"
           style="fill:#231f20;fill-opacity:1;fill-rule:nonzero;stroke:none"
           d="m 16290,1151.59 c 5.5,0.33 10,-3.76 9.8,-8.83 -0.2,-5.18 -4.1,-9.52 -9.2,-10.25 -4.9,-0.71 -10,2.77 -11.2,7.63 -1.4,5.66 3.6,11.03 10.6,11.45" /></g><g
         transform="scale(1.81563)"
         id="g90"><path
           id="path92"
           style="fill:#231f20;fill-opacity:1;fill-rule:nonzero;stroke:none"
           d="m 16299.9,318.104 c 0.1,-4.995 -4.7,-8.713 -10.7,-7.958 -3.4,0.43 -5.7,2.616 -6,6.016 -0.4,5.006 4.7,8.806 10.7,8.102 3.4,-0.409 5.4,-2.58 6,-6.16" /></g><g
         transform="scale(1.16273)"
         id="g94"><path
           id="path96"
           style="fill:#231f20;fill-opacity:1;fill-rule:nonzero;stroke:none"
           d="m 16289.7,262.142 c -6.1,-1.075 -12.4,3.854 -13.5,10.475 -1.1,6.733 3.1,13.237 9.4,14.517 6.1,1.256 12.2,-3.43 13.3,-10.415 1.1,-6.967 -3,-13.485 -9.2,-14.577" /></g><path
         id="path98"
         style="fill:#231f20;fill-opacity:1;fill-rule:nonzero;stroke:none"
         d="m 524.297,1475.65 c 5.82,-3.36 6.937,-8.79 5.578,-14.63 -1.414,-6.09 -5.582,-10.76 -12.055,-8.73 -6.312,1.98 -7.257,8.28 -5.742,14.19 1.551,6.05 5.457,9.74 12.219,9.17" /><path
         id="path100"
         style="fill:#231f20;fill-opacity:1;fill-rule:nonzero;stroke:none"
         d="m 13883.7,1189.73 c -5.6,2.8 -8,7.5 -5.3,12.92 1.2,2.2 6.3,4.26 8.7,3.51 5.8,-1.81 8.2,-7.17 5.4,-12.61 -1.1,-2.21 -5.8,-2.62 -8.8,-3.82" /><g
         transform="scale(1.20439)"
         id="g102"><path
           id="path104"
           style="fill:#231f20;fill-opacity:1;fill-rule:nonzero;stroke:none"
           d="m 16277.8,1404.08 c -9.9,0.56 -18.4,11.21 -18.2,22.86 0.3,11.64 10.1,20.83 20.9,19.46 11.1,-1.41 19.5,-11.41 18.6,-22.31 -1,-11.1 -11.1,-20.59 -21.3,-20.01" /></g><path
         id="path106"
         style="fill:#231f20;fill-opacity:1;fill-rule:nonzero;stroke:none"
         d="m 11832.8,2405.74 c -8.6,-0.06 -17.4,8.32 -18.2,17.42 -1.6,15.7 11,27.73 27.7,25.92 7.8,-0.85 14,-5.01 15.1,-13.34 2,-15.64 -10,-29.89 -24.6,-30" /><path
         id="path108"
         style="fill:#231f20;fill-opacity:1;fill-rule:nonzero;stroke:none"
         d="m 12200.7,1233.2 c -0.6,-10.84 -4.9,-19.41 -14.8,-22.57 -4.6,-1.43 -11.7,-0.17 -15.4,2.74 -6.7,5.29 -5.9,13.53 -2.2,20.7 4.3,8.45 9.2,17.67 20.6,16.02 9.1,-1.31 10.7,-9.66 11.8,-16.89" /><g
         transform="scale(1.59167)"
         id="g110"><path
           id="path112"
           style="fill:#231f20;fill-opacity:1;fill-rule:nonzero;stroke:none"
           d="m 16261.9,1493.91 c -3.1,0.47 -12.5,1.43 -21.7,3.37 -6.6,1.41 -9.2,12.8 -4.3,17.66 2.4,2.44 5.2,5.33 8.4,6.12 16.4,4.1 32.8,1.71 48.9,-2.41 4.5,-1.16 6.8,-6.39 6.5,-11.53 -0.3,-4.95 -2.6,-9.1 -7.1,-11.51 -7.8,-4.22 -16.2,-2.2 -30.7,-1.7" /></g><g
         transform="scale(1.58143)"
         id="g114"><path
           id="path116"
           style="fill:#231f20;fill-opacity:1;fill-rule:nonzero;stroke:none"
           d="m 16287.7,1531.34 c -1.8,0.84 -5.2,1.89 -7.7,3.87 -1.6,1.14 -2.8,3.89 -2.6,5.76 0.2,1.88 2.1,4.88 3.6,5.08 4.3,0.57 9.1,0.9 13.1,-0.47 2.4,-0.81 4.6,-4.85 5.1,-7.76 0.8,-3.99 -4.8,-7.34 -11.5,-6.48" /></g><g
         transform="scale(1.80528)"
         id="g118"><path
           id="path120"
           style="fill:#231f20;fill-opacity:1;fill-rule:nonzero;stroke:none"
           d="m 16295,698.069 c 1.4,-1.214 3.5,-2.184 4,-3.685 1,-3.207 -2.8,-6.741 -5.4,-5.09 -1.4,0.892 -2.7,3.395 -2.5,4.951 0.3,1.43 2.5,2.56 3.9,3.824" /></g><path
         id="path122"
         style="fill:#231f20;fill-opacity:1;fill-rule:nonzero;stroke:none"
         d="m 10439.6,1686.5 c 9.8,-9.34 5.6,-18.99 5,-27.69 -0.6,-10.76 0.9,-22.95 -11,-29.65 -1.2,-0.7 -4,-0.6 -4.9,0.29 -10.6,10.51 -2.7,20.67 0.9,30.82 3.1,8.48 6.5,16.85 10,26.23" /></g></g></svg>